<svg width="1909" height="77" viewBox="0 0 1909 77" fill="none" xmlns="http://www.w3.org/2000/svg">
<path d="M43.5358 1.25039C28.6476 7.19467 15.2567 14.2549 0 19.9156V77H1950V42.7365C1943.5 45.1478 1936.29 50.8053 1930.76 54.2878C1913.21 65.3461 1910.31 59.4401 1884.7 55.4148C1832.03 47.14 1773.3 36.3974 1717.64 36.3974C1710.04 36.3974 1703.11 38.0633 1695.87 39.2148C1670.78 43.2047 1647.36 48.2955 1620.19 47.8078C1616.13 47.735 1616.72 44.933 1613.36 44.2861C1592.81 40.3388 1560.82 41.022 1540.71 40.2713C1510.62 39.1479 1480.5 38.1366 1450.35 37.6652C1410.18 37.0372 1366.35 34.6405 1329.87 46.8217C1323.73 48.8726 1296.22 64.3373 1292.15 60.4861C1287.67 56.2427 1283.31 56.4901 1276.21 54.147C1266.92 51.0854 1251.25 51.8148 1241.78 51.1887C1193.83 48.0172 1145.92 41.4018 1098.01 38.933C1081.84 38.0993 1065.54 40.0214 1049.42 40.2009C1032.65 40.3875 1014.51 38.7875 999.046 35.1296C986.037 32.0526 976.499 25.3037 963.104 22.733C951.539 20.5137 939.2 21.1835 927.161 21.1835C912.553 21.1835 904.076 26.5314 891.599 30.833C866.091 39.627 835.638 53.1511 804.907 55.2035C798.823 55.6098 792.177 55.7844 787.188 53.5131C780.386 50.4156 775.932 46.5493 769.597 43.1591C764.239 40.292 759.181 37.2657 753.777 34.4252C750.013 32.4465 745.075 30.7718 740.362 29.6356C709.464 22.187 675.38 18.075 642.786 13.9287C605.318 9.16231 562.927 2.16604 523.822 2.16604C516.544 2.16604 510.518 3.50313 503.699 4.84256C466.318 12.1854 411.005 22.0767 372.459 17.3095C366.269 16.5439 365.03 13.8794 361.069 11.6747C358.308 10.138 356.418 7.82386 352.969 6.74431C348.51 5.34824 343.017 6.00436 338.289 4.63126C323.467 0.327512 306.86 0.898212 290.576 0.898212C274.713 0.898212 267.761 3.21079 254.128 6.81474C230.736 12.9986 184.087 30.0588 157.311 21.6765C147.711 18.6712 140.745 14.1037 129.848 11.7452C117.298 9.02891 108.395 17.976 99.3477 21.6061C87.8462 26.2208 87.1361 25.6499 80.7536 20.5183L80.6172 20.4087C73.3717 14.584 66.5801 8.84579 58.09 3.5043C53.2487 0.458488 50.0608 -1.35477 43.5358 1.25039Z" fill="#FFFAF3"/>
</svg>
