<svg viewBox="0 0 1920 160" fill="none" xmlns="http://www.w3.org/2000/svg">
<path d="M38.5358 157.402C23.6476 145.05 10.2567 130.379 -5 118.617V0H1945V71.1968C1938.5 66.1863 1931.29 54.4306 1925.76 47.1941C1908.21 24.2159 1905.31 36.4881 1879.7 44.8524C1827.03 62.0468 1768.3 84.3691 1712.64 84.3691C1705.04 84.3691 1698.11 80.9074 1690.87 78.5147C1665.78 70.2241 1642.36 59.6457 1615.19 60.6591C1611.13 60.8105 1611.72 66.6327 1608.36 67.977C1587.81 76.1791 1555.82 74.7594 1535.71 76.3194C1505.62 78.6538 1475.5 80.7551 1445.35 81.7346C1405.18 83.0395 1361.35 88.0197 1324.87 62.7081C1318.73 58.4466 1291.22 26.312 1287.15 34.3146C1282.67 43.1321 1278.31 42.618 1271.21 47.4868C1261.92 53.8486 1246.25 52.3329 1236.78 53.6339C1188.83 60.2239 1140.92 73.9703 1093.01 79.1002C1076.84 80.8326 1060.54 76.8386 1044.42 76.4657C1027.65 76.0779 1009.51 79.4027 994.046 87.0035C981.037 93.3973 971.499 107.421 958.104 112.763C946.539 117.374 934.2 115.982 922.161 115.982C907.553 115.982 899.076 104.87 886.599 95.9314C861.091 77.6582 830.638 49.5562 799.907 45.2915C793.823 44.4472 787.177 44.0844 782.188 48.804C775.386 55.2403 770.932 63.2741 764.597 70.3187C759.239 76.2764 754.181 82.5649 748.777 88.4671C745.013 92.5788 740.075 96.0586 735.362 98.4195C704.464 113.897 670.38 122.442 637.786 131.057C600.318 140.961 557.927 155.499 518.822 155.499C511.544 155.499 505.518 152.721 498.699 149.938C461.318 134.68 406.005 114.126 367.459 124.032C361.269 125.623 360.03 131.16 356.069 135.741C353.308 138.934 351.418 143.743 347.969 145.986C343.51 148.887 338.017 147.523 333.289 150.377C318.467 159.319 301.86 158.134 285.576 158.134C269.713 158.134 262.761 153.328 249.128 145.84C225.736 132.99 179.087 97.5402 152.311 114.958C142.711 121.203 135.745 130.694 124.848 135.594C112.298 141.239 103.395 122.647 94.3477 115.104C82.8462 105.515 82.1361 106.702 75.7536 117.364L75.6172 117.592C68.3717 129.696 61.5801 141.619 53.09 152.718C48.2487 159.047 45.0608 162.815 38.5358 157.402Z" fill="#FFFAF3"/>
</svg>
