<svg width="137" height="22" viewBox="0 0 137 22" fill="none" xmlns="http://www.w3.org/2000/svg">
<g id="Vector">
<path fill-rule="evenodd" clip-rule="evenodd" d="M16.1743 19.9904C19.8995 17.8397 21.794 13.7358 21.3111 9.71908L17.6122 11.8547C17.3452 13.8446 16.1912 15.6935 14.3179 16.7751C11.1107 18.6268 7.00953 17.5279 5.15781 14.3206C3.30608 11.1134 4.40499 7.01222 7.61225 5.16051C10.1408 3.70067 13.2248 4.07473 15.3243 5.86999L9.61781 9.16463L8.70432 14.0229L20.6506 7.12569C20.4657 6.66122 20.2451 6.20433 19.9877 5.75859C17.1107 0.775526 10.739 -0.931803 5.75588 1.94518C0.772803 4.82216 -0.9345 11.194 1.94247 16.177C4.81944 21.1601 11.1912 22.8674 16.1743 19.9904Z" fill="#253D4E"/>
<path d="M115.997 3.46213V12.5431C115.997 13.8742 115.495 15.0069 114.473 16.0036C113.45 16.9695 112.316 17.4306 110.976 17.4306C109.632 17.4306 108.467 16.9661 107.447 16.0036C106.433 15.0149 105.956 13.8852 105.956 12.5431V1.04716L101.852 3.41632V12.2529C101.852 14.8175 102.713 17.0093 104.42 18.7418L104.423 18.7447L104.426 18.7475C106.168 20.479 108.359 21.3607 110.976 21.3607C113.591 21.3607 115.785 20.4807 117.497 18.7446C119.24 17.0109 120.101 14.8168 120.101 12.2529V1.09297L115.997 3.46213Z" fill="#253D4E"/>
<path d="M45.706 13.9802L44.9108 15.625L44.9005 15.6435C43.8505 17.5345 42.4909 18.9751 40.8138 19.9344C39.137 20.8935 37.1886 21.3454 35.0022 21.3284L34.9991 21.3284C32.0531 21.2938 29.5137 20.284 27.3847 18.3151C25.2433 16.3347 24.1643 13.8823 24.1286 11.0368C24.0929 8.15184 25.1393 5.69732 27.2757 3.6523L27.278 3.65011L27.2803 3.64794C29.4356 1.61859 32.0073 0.536093 34.9974 0.50101C37.1394 0.466599 39.1386 1.02524 40.9806 2.12866L40.9847 2.13112L40.9888 2.13363C42.7109 3.19425 44.0227 4.52454 44.7939 6.20466L44.7948 6.20662L45.6393 8.07493H41.1568L40.9316 7.70273C39.6476 5.58069 37.745 4.49016 35.0924 4.43088C33.3589 4.40281 31.8277 4.99382 30.4045 6.29079L30.4018 6.29326L30.399 6.29571C28.9277 7.61111 28.2321 9.15383 28.2321 10.9308C28.2321 12.7164 28.9023 14.2355 30.2541 15.5528C31.6004 16.8329 33.1899 17.4596 35.0291 17.4307L35.031 17.4306L35.0329 17.4306C37.7359 17.4011 39.6689 16.3586 40.9764 14.3337L41.2047 13.9802H45.706Z" fill="#253D4E"/>
<path fill-rule="evenodd" clip-rule="evenodd" d="M57.4597 0.565972C60.2752 0.670052 62.7223 1.71932 64.6874 3.77024C66.6423 5.77817 67.6476 8.18769 67.6476 10.963C67.6476 13.8154 66.5664 16.295 64.4388 18.3661C62.3397 20.4095 59.7827 21.4317 56.8431 21.3281C54.0222 21.2575 51.5754 20.2058 49.6122 18.1905C47.651 16.1771 46.6829 13.765 46.6829 10.9953C46.6829 8.11771 47.7589 5.60501 49.8561 3.56235C51.9571 1.48349 54.5182 0.461215 57.4597 0.565972ZM56.9318 17.3989L56.9371 17.3992C58.7986 17.4855 60.333 16.894 61.6336 15.5415L61.6366 15.5384L61.6396 15.5354C62.9888 14.1637 63.6057 12.616 63.5774 10.7882C63.5163 9.04588 62.8666 7.57893 61.6385 6.32509C60.4247 5.08588 59.0037 4.49553 57.2977 4.49553H57.2914L57.285 4.49542C55.4868 4.46673 53.9967 5.08752 52.7122 6.33796C51.4345 7.58174 50.8162 9.03735 50.7863 10.8142C50.7563 12.5641 51.3187 14.0847 52.5383 15.3878C53.7603 16.6934 55.1882 17.3414 56.9265 17.3988L56.9318 17.3989Z" fill="#253D4E"/>
<path d="M99.021 20.9092H94.8512V8.867C94.8512 7.60594 94.4721 6.55171 93.7645 5.69754C93.0884 4.88148 92.1872 4.46328 91.0562 4.46328C89.8592 4.46328 88.8481 4.84432 87.9601 5.59552C87.136 6.31954 86.7311 7.20918 86.7311 8.3188V20.9092H82.5283V8.3188C82.5283 7.2091 82.1239 6.3227 81.2709 5.59954L81.2662 5.5955L81.2615 5.59139C80.4115 4.84675 79.4045 4.46328 78.2032 4.46328C77.079 4.46328 76.2083 4.87647 75.5281 5.69754C74.827 6.54385 74.4744 7.56247 74.4744 8.867V20.9092H70.3047V9.15722C70.3047 6.72372 71.0121 4.65128 72.536 3.09315C73.9415 1.61886 75.7854 0.807156 78.0069 0.632478C79.5156 0.508853 80.9019 0.764978 82.1403 1.41341C83.0781 1.90445 83.9059 2.60711 84.6297 3.49808C85.3535 2.60711 86.1812 1.90445 87.119 1.41341C88.3575 0.764978 89.7438 0.508853 91.2525 0.632478C93.4775 0.807431 95.3174 1.62067 96.7527 3.0892C98.2739 4.64229 99.021 6.71249 99.021 9.15722V20.9092Z" fill="#253D4E"/>
<path d="M127.185 13.9479V15.3164C127.185 15.6325 127.379 16.0946 128.018 16.7168C128.595 17.279 129.156 17.4851 129.689 17.4635L129.693 17.4633L129.697 17.4632C130.617 17.4352 131.236 17.1909 131.69 16.749C132.075 16.3747 132.295 15.8395 132.324 15.0695C132.336 14.441 132.162 13.9656 131.838 13.5877C131.502 13.1958 130.953 12.8484 130.116 12.5863L130.113 12.5855L127.899 11.91C126.621 11.519 125.587 10.8779 124.862 9.96081C124.137 9.04348 123.767 7.90885 123.712 6.60912C123.636 4.97647 124.218 3.54639 125.396 2.39914L125.4 2.3949L125.405 2.39073C126.596 1.26751 128.032 0.639798 129.717 0.566288C131.224 0.491743 132.599 0.987721 133.819 1.95808C135.099 2.94907 135.812 4.20052 135.928 5.71477L135.929 5.72084L136.011 7.07528H131.761V5.90028C131.761 5.53214 131.579 5.20084 131.223 4.9386C130.861 4.67122 130.338 4.49737 129.764 4.49554C128.726 4.52329 127.904 5.29059 127.881 6.27217L127.88 6.29118L127.879 6.31015C127.843 6.78843 127.97 7.15418 128.236 7.46021C128.518 7.78549 129.004 8.09534 129.768 8.34348L131.957 9.05385L131.96 9.05481C133.326 9.50961 134.431 10.2017 135.217 11.1549C136.005 12.1104 136.432 13.2788 136.525 14.6166C136.676 16.5042 135.976 18.1718 134.496 19.5405L134.493 19.5439L134.489 19.5474C133.017 20.8727 131.289 21.5008 129.345 21.3917L129.344 21.3916L129.342 21.3914C127.541 21.2819 126.036 20.5435 124.817 19.2853L124.813 19.2811L124.809 19.2768C123.613 18.0038 123.015 16.4656 123.015 14.7037V13.9479H127.185Z" fill="#253D4E"/>
<path fill-rule="evenodd" clip-rule="evenodd" d="M16.1743 19.9904C19.8995 17.8397 21.794 13.7358 21.3111 9.71908L17.6122 11.8547C17.3452 13.8446 16.1912 15.6935 14.3179 16.7751C11.1107 18.6268 7.00953 17.5279 5.15781 14.3206C3.30608 11.1134 4.40499 7.01222 7.61225 5.16051C10.1408 3.70067 13.2248 4.07473 15.3243 5.86999L9.61781 9.16463L8.70432 14.0229L20.6506 7.12569C20.4657 6.66122 20.2451 6.20433 19.9877 5.75859C17.1107 0.775526 10.739 -0.931803 5.75588 1.94518C0.772803 4.82216 -0.9345 11.194 1.94247 16.177C4.81944 21.1601 11.1912 22.8674 16.1743 19.9904Z" stroke="#253D4E"/>
<path d="M115.997 3.46213V12.5431C115.997 13.8742 115.495 15.0069 114.473 16.0036C113.45 16.9695 112.316 17.4306 110.976 17.4306C109.632 17.4306 108.467 16.9661 107.447 16.0036C106.433 15.0149 105.956 13.8852 105.956 12.5431V1.04716L101.852 3.41632V12.2529C101.852 14.8175 102.713 17.0093 104.42 18.7418L104.423 18.7447L104.426 18.7475C106.168 20.479 108.359 21.3607 110.976 21.3607C113.591 21.3607 115.785 20.4807 117.497 18.7446C119.24 17.0109 120.101 14.8168 120.101 12.2529V1.09297L115.997 3.46213Z" stroke="#253D4E"/>
<path d="M45.706 13.9802L44.9108 15.625L44.9005 15.6435C43.8505 17.5345 42.4909 18.9751 40.8138 19.9344C39.137 20.8935 37.1886 21.3454 35.0022 21.3284L34.9991 21.3284C32.0531 21.2938 29.5137 20.284 27.3847 18.3151C25.2433 16.3347 24.1643 13.8823 24.1286 11.0368C24.0929 8.15184 25.1393 5.69732 27.2757 3.6523L27.278 3.65011L27.2803 3.64794C29.4356 1.61859 32.0073 0.536093 34.9974 0.50101C37.1394 0.466599 39.1386 1.02524 40.9806 2.12866L40.9847 2.13112L40.9888 2.13363C42.7109 3.19425 44.0227 4.52454 44.7939 6.20466L44.7948 6.20662L45.6393 8.07493H41.1568L40.9316 7.70273C39.6476 5.58069 37.745 4.49016 35.0924 4.43088C33.3589 4.40281 31.8277 4.99382 30.4045 6.29079L30.4018 6.29326L30.399 6.29571C28.9277 7.61111 28.2321 9.15383 28.2321 10.9308C28.2321 12.7164 28.9023 14.2355 30.2541 15.5528C31.6004 16.8329 33.1899 17.4596 35.0291 17.4307L35.031 17.4306L35.0329 17.4306C37.7359 17.4011 39.6689 16.3586 40.9764 14.3337L41.2047 13.9802H45.706Z" stroke="#253D4E"/>
<path fill-rule="evenodd" clip-rule="evenodd" d="M57.4597 0.565972C60.2752 0.670052 62.7223 1.71932 64.6874 3.77024C66.6423 5.77817 67.6476 8.18769 67.6476 10.963C67.6476 13.8154 66.5664 16.295 64.4388 18.3661C62.3397 20.4095 59.7827 21.4317 56.8431 21.3281C54.0222 21.2575 51.5754 20.2058 49.6122 18.1905C47.651 16.1771 46.6829 13.765 46.6829 10.9953C46.6829 8.11771 47.7589 5.60501 49.8561 3.56235C51.9571 1.48349 54.5182 0.461215 57.4597 0.565972ZM56.9318 17.3989L56.9371 17.3992C58.7986 17.4855 60.333 16.894 61.6336 15.5415L61.6366 15.5384L61.6396 15.5354C62.9888 14.1637 63.6057 12.616 63.5774 10.7882C63.5163 9.04588 62.8666 7.57893 61.6385 6.32509C60.4247 5.08588 59.0037 4.49553 57.2977 4.49553H57.2914L57.285 4.49542C55.4868 4.46673 53.9967 5.08752 52.7122 6.33796C51.4345 7.58174 50.8162 9.03735 50.7863 10.8142C50.7563 12.5641 51.3187 14.0847 52.5383 15.3878C53.7603 16.6934 55.1882 17.3414 56.9265 17.3988L56.9318 17.3989Z" stroke="#253D4E"/>
<path d="M99.021 20.9092H94.8512V8.867C94.8512 7.60594 94.4721 6.55171 93.7645 5.69754C93.0884 4.88148 92.1872 4.46328 91.0562 4.46328C89.8592 4.46328 88.8481 4.84432 87.9601 5.59552C87.136 6.31954 86.7311 7.20918 86.7311 8.3188V20.9092H82.5283V8.3188C82.5283 7.2091 82.1239 6.3227 81.2709 5.59954L81.2662 5.5955L81.2615 5.59139C80.4115 4.84675 79.4045 4.46328 78.2032 4.46328C77.079 4.46328 76.2083 4.87647 75.5281 5.69754C74.827 6.54385 74.4744 7.56247 74.4744 8.867V20.9092H70.3047V9.15722C70.3047 6.72372 71.0121 4.65128 72.536 3.09315C73.9415 1.61886 75.7854 0.807156 78.0069 0.632478C79.5156 0.508853 80.9019 0.764978 82.1403 1.41341C83.0781 1.90445 83.9059 2.60711 84.6297 3.49808C85.3535 2.60711 86.1812 1.90445 87.119 1.41341C88.3575 0.764978 89.7438 0.508853 91.2525 0.632478C93.4775 0.807431 95.3174 1.62067 96.7527 3.0892C98.2739 4.64229 99.021 6.71249 99.021 9.15722V20.9092Z" stroke="#253D4E"/>
<path d="M127.185 13.9479V15.3164C127.185 15.6325 127.379 16.0946 128.018 16.7168C128.595 17.279 129.156 17.4851 129.689 17.4635L129.693 17.4633L129.697 17.4632C130.617 17.4352 131.236 17.1909 131.69 16.749C132.075 16.3747 132.295 15.8395 132.324 15.0695C132.336 14.441 132.162 13.9656 131.838 13.5877C131.502 13.1958 130.953 12.8484 130.116 12.5863L130.113 12.5855L127.899 11.91C126.621 11.519 125.587 10.8779 124.862 9.96081C124.137 9.04348 123.767 7.90885 123.712 6.60912C123.636 4.97647 124.218 3.54639 125.396 2.39914L125.4 2.3949L125.405 2.39073C126.596 1.26751 128.032 0.639798 129.717 0.566288C131.224 0.491743 132.599 0.987721 133.819 1.95808C135.099 2.94907 135.812 4.20052 135.928 5.71477L135.929 5.72084L136.011 7.07528H131.761V5.90028C131.761 5.53214 131.579 5.20084 131.223 4.9386C130.861 4.67122 130.338 4.49737 129.764 4.49554C128.726 4.52329 127.904 5.29059 127.881 6.27217L127.88 6.29118L127.879 6.31015C127.843 6.78843 127.97 7.15418 128.236 7.46021C128.518 7.78549 129.004 8.09534 129.768 8.34348L131.957 9.05385L131.96 9.05481C133.326 9.50961 134.431 10.2017 135.217 11.1549C136.005 12.1104 136.432 13.2788 136.525 14.6166C136.676 16.5042 135.976 18.1718 134.496 19.5405L134.493 19.5439L134.489 19.5474C133.017 20.8727 131.289 21.5008 129.345 21.3917L129.344 21.3916L129.342 21.3914C127.541 21.2819 126.036 20.5435 124.817 19.2853L124.813 19.2811L124.809 19.2768C123.613 18.0038 123.015 16.4656 123.015 14.7037V13.9479H127.185Z" stroke="#253D4E"/>
</g>
</svg>
