<svg width="136" height="132" viewBox="0 0 136 132" fill="none" xmlns="http://www.w3.org/2000/svg">
<path d="M114.506 17.4874L113.951 16.5586L113.069 17.1842L84.5459 37.4044L87.7177 2.08945L87.8155 1H86.7217H49.2783H48.1834L48.2824 2.09046L51.4534 37L22.5051 16.7594L21.602 16.128L21.0609 17.0879L2.54956 49.93L2.01774 50.8736L3.00066 51.3285L34.6849 65.9944L2.58423 80.6695L1.56944 81.1334L2.14134 82.0915L21.4941 114.513L22.0486 115.441L22.9311 114.816L51.4541 94.5956L48.2823 129.911L48.1845 131H49.2783H86.7217H87.8166L87.7176 129.91L84.5466 95L113.495 115.241L114.398 115.872L114.939 114.912L133.45 82.07L133.982 81.1264L132.999 80.6714L101.315 66.0056L133.416 51.3305L134.431 50.8666L133.859 49.9085L114.506 17.4874Z" fill="#F7941F" stroke="#13172B" stroke-width="2"/>
</svg>
