<svg width="394" height="319" viewBox="0 0 394 319" fill="none" xmlns="http://www.w3.org/2000/svg">
<path d="M310.221 248.317C310.179 248.245 310.124 248.183 310.058 248.133C309.992 248.083 309.917 248.047 309.837 248.026C309.757 248.005 309.673 248.001 309.591 248.012C309.509 248.024 309.431 248.052 309.359 248.094L307.265 249.327L306.032 247.233C305.947 247.09 305.808 246.986 305.647 246.945C305.485 246.904 305.314 246.928 305.17 247.014C305.027 247.099 304.923 247.237 304.882 247.398C304.841 247.56 304.865 247.731 304.951 247.875L306.184 249.968L304.089 251.201C304.018 251.242 303.955 251.298 303.906 251.364C303.857 251.43 303.821 251.505 303.801 251.586C303.769 251.706 303.774 251.833 303.815 251.95C303.856 252.068 303.931 252.171 304.03 252.245C304.13 252.32 304.249 252.363 304.374 252.37C304.498 252.376 304.621 252.346 304.728 252.282L306.823 251.049L308.053 253.143C308.12 253.255 308.22 253.343 308.339 253.396C308.458 253.449 308.59 253.464 308.718 253.438C308.788 253.426 308.854 253.4 308.914 253.363C309.058 253.278 309.161 253.14 309.203 252.979C309.245 252.818 309.221 252.648 309.137 252.504L307.904 250.41L309.998 249.178C310.07 249.136 310.132 249.08 310.182 249.015C310.231 248.949 310.268 248.873 310.288 248.793C310.309 248.713 310.314 248.63 310.302 248.548C310.291 248.467 310.263 248.388 310.221 248.317Z" fill="#DEDEDE"/>
<path d="M315.507 262.117C314.965 262.117 314.436 261.956 313.985 261.655C313.535 261.355 313.184 260.927 312.977 260.427C312.77 259.927 312.715 259.376 312.821 258.845C312.927 258.314 313.187 257.826 313.57 257.444C313.953 257.061 314.441 256.8 314.973 256.694C315.504 256.589 316.055 256.643 316.555 256.85C317.055 257.057 317.483 257.408 317.784 257.858C318.085 258.309 318.246 258.838 318.246 259.379C318.245 260.105 317.956 260.801 317.443 261.314C316.929 261.827 316.233 262.116 315.507 262.117ZM315.507 258.107C315.255 258.107 315.008 258.182 314.798 258.322C314.589 258.462 314.425 258.662 314.329 258.895C314.232 259.128 314.207 259.384 314.257 259.631C314.306 259.879 314.428 260.106 314.606 260.284C314.785 260.462 315.012 260.583 315.26 260.632C315.507 260.681 315.764 260.655 315.997 260.559C316.23 260.462 316.429 260.298 316.568 260.088C316.708 259.878 316.783 259.631 316.782 259.379C316.781 259.042 316.647 258.718 316.408 258.48C316.169 258.241 315.845 258.107 315.507 258.107Z" fill="#DEDEDE"/>
<path d="M38.9685 302.281C38.4268 302.282 37.897 302.121 37.4463 301.821C36.9956 301.521 36.6442 301.093 36.4365 300.593C36.2288 300.093 36.1742 299.542 36.2796 299.011C36.385 298.48 36.6456 297.992 37.0285 297.609C37.4114 297.226 37.8994 296.965 38.4307 296.859C38.962 296.753 39.5127 296.807 40.0133 297.014C40.5139 297.221 40.9417 297.572 41.2428 298.022C41.5438 298.473 41.7045 299.002 41.7045 299.544C41.7038 300.269 41.4154 300.964 40.9025 301.478C40.3897 301.991 39.6942 302.28 38.9685 302.281ZM38.9685 298.269C38.7163 298.269 38.4698 298.344 38.2601 298.484C38.0505 298.624 37.887 298.823 37.7905 299.056C37.694 299.289 37.6688 299.545 37.718 299.792C37.7672 300.039 37.8886 300.267 38.0669 300.445C38.2452 300.623 38.4724 300.744 38.7198 300.794C38.9671 300.843 39.2235 300.818 39.4565 300.721C39.6894 300.625 39.8886 300.461 40.0287 300.252C40.1688 300.042 40.2436 299.796 40.2436 299.544C40.2422 299.206 40.1073 298.883 39.8684 298.645C39.6295 298.407 39.306 298.272 38.9685 298.272V298.269Z" fill="#DEDEDE"/>
<path d="M342.163 7.98211C341.621 7.98211 341.092 7.82162 340.641 7.52094C340.191 7.22026 339.84 6.79288 339.633 6.29283C339.425 5.79277 339.371 5.24249 339.476 4.71154C339.582 4.1806 339.842 3.69282 340.225 3.30988C340.608 2.92693 341.096 2.66601 341.627 2.56009C342.158 2.45416 342.708 2.508 343.209 2.71479C343.709 2.92159 344.137 3.27205 344.438 3.72188C344.74 4.17171 344.901 4.70071 344.901 5.24202C344.901 5.60173 344.831 5.95798 344.693 6.29041C344.556 6.62284 344.354 6.92492 344.1 7.1794C343.846 7.43387 343.544 7.63575 343.211 7.77348C342.879 7.91121 342.522 7.98211 342.163 7.98211ZM342.163 3.97273C341.91 3.97273 341.664 4.04748 341.454 4.18753C341.244 4.32758 341.081 4.52663 340.985 4.75952C340.888 4.9924 340.863 5.24867 340.912 5.4959C340.961 5.74313 341.083 5.97023 341.261 6.14848C341.439 6.32672 341.666 6.44811 341.914 6.49728C342.161 6.54646 342.417 6.52122 342.65 6.42476C342.883 6.32829 343.083 6.16493 343.223 5.95534C343.363 5.74575 343.438 5.49933 343.438 5.24725C343.438 4.90923 343.303 4.58505 343.064 4.34603C342.825 4.10701 342.501 3.97273 342.163 3.97273Z" fill="#DEDEDE"/>
<path d="M389.03 77.2956C388.881 77.3694 388.767 77.499 388.713 77.6564C388.659 77.8137 388.67 77.986 388.742 78.1357L389.79 80.3131L387.611 81.3599C387.537 81.3957 387.47 81.4459 387.415 81.5076C387.36 81.5694 387.318 81.6415 387.291 81.7196C387.264 81.7978 387.253 81.8806 387.259 81.963C387.264 82.0455 387.286 82.1261 387.323 82.2C387.359 82.2741 387.409 82.3404 387.47 82.3948C387.532 82.4492 387.604 82.4906 387.682 82.5167C387.76 82.5439 387.842 82.5554 387.924 82.5505C388.007 82.5455 388.087 82.5242 388.161 82.4879L390.339 81.441L391.387 83.6185C391.461 83.768 391.59 83.8826 391.748 83.9378C391.826 83.9652 391.908 83.9765 391.991 83.9711C392.073 83.9657 392.153 83.9437 392.227 83.9063C392.301 83.8706 392.368 83.8205 392.422 83.759C392.477 83.6975 392.519 83.6258 392.546 83.548C392.573 83.4701 392.585 83.3878 392.58 83.3055C392.575 83.2233 392.554 83.1429 392.518 83.0689L391.47 80.8915L393.646 79.8315C393.72 79.7955 393.787 79.7451 393.842 79.6833C393.896 79.6216 393.939 79.5497 393.965 79.4717C393.992 79.3937 394.004 79.3111 393.999 79.2287C393.994 79.1463 393.973 79.0657 393.937 78.9915C393.901 78.9172 393.85 78.8508 393.788 78.7961C393.727 78.7413 393.655 78.6992 393.577 78.6722C393.499 78.6452 393.416 78.6339 393.334 78.6388C393.251 78.6438 393.171 78.6649 393.096 78.701L390.918 79.7609L389.858 77.5861C389.784 77.4399 389.657 77.3279 389.503 77.2737C389.348 77.2195 389.179 77.2273 389.03 77.2956Z" fill="#DEDEDE"/>
<path d="M349.472 129.381C348.931 129.381 348.401 129.22 347.951 128.919C347.501 128.619 347.15 128.191 346.942 127.691C346.735 127.191 346.681 126.64 346.786 126.109C346.892 125.578 347.153 125.09 347.536 124.708C347.919 124.325 348.407 124.064 348.938 123.958C349.469 123.853 350.02 123.907 350.52 124.114C351.021 124.321 351.449 124.672 351.749 125.122C352.05 125.573 352.211 126.102 352.211 126.643C352.21 127.369 351.922 128.065 351.408 128.578C350.895 129.091 350.199 129.38 349.472 129.381ZM349.472 125.369C349.22 125.369 348.974 125.444 348.764 125.584C348.554 125.724 348.391 125.923 348.294 126.156C348.198 126.388 348.173 126.645 348.222 126.892C348.271 127.139 348.392 127.366 348.571 127.545C348.749 127.723 348.976 127.844 349.224 127.893C349.471 127.943 349.727 127.917 349.96 127.821C350.193 127.724 350.392 127.561 350.533 127.351C350.673 127.142 350.747 126.895 350.747 126.643C350.748 126.476 350.715 126.31 350.651 126.155C350.587 126 350.493 125.859 350.375 125.74C350.256 125.622 350.116 125.528 349.961 125.463C349.806 125.399 349.64 125.366 349.472 125.366V125.369Z" fill="#DEDEDE"/>
<path d="M0.334876 167.535C0.213825 167.65 0.143077 167.807 0.138168 167.973C0.133259 168.14 0.19459 168.301 0.308695 168.422L1.96599 170.189L0.198732 171.846C0.108089 171.931 0.0446503 172.04 0.0164308 172.161C-0.0117887 172.282 -0.00352319 172.409 0.0401832 172.525C0.0838897 172.641 0.161076 172.742 0.261991 172.814C0.362906 172.887 0.483023 172.928 0.607166 172.932C0.770367 172.934 0.928208 172.873 1.04702 172.762L2.81428 171.105L4.47158 172.872C4.5277 172.932 4.59529 172.98 4.67038 173.014C4.74546 173.047 4.82653 173.066 4.90881 173.068C5.0751 173.073 5.23685 173.013 5.35914 172.9C5.41964 172.844 5.4684 172.776 5.50261 172.701C5.53682 172.625 5.55581 172.544 5.55849 172.461C5.56116 172.379 5.54747 172.296 5.51821 172.219C5.48894 172.142 5.44467 172.071 5.38794 172.01L3.73064 170.247L5.4979 168.59C5.59237 168.501 5.65691 168.384 5.68268 168.257C5.70846 168.129 5.69421 167.997 5.6419 167.878C5.61448 167.812 5.57546 167.752 5.5267 167.7C5.41195 167.579 5.25386 167.508 5.08702 167.503C4.92018 167.498 4.75819 167.56 4.63652 167.674L2.87973 169.333L1.22243 167.569C1.10921 167.447 0.952125 167.375 0.7857 167.369C0.619275 167.362 0.457124 167.422 0.334876 167.535Z" fill="#DEDEDE"/>
<path d="M27.3151 197.626C26.7733 197.627 26.2436 197.467 25.7929 197.166C25.3422 196.866 24.9907 196.439 24.7831 195.938C24.5754 195.438 24.5208 194.888 24.6262 194.357C24.7315 193.825 24.9921 193.337 25.375 192.954C25.7579 192.571 26.2459 192.31 26.7772 192.204C27.3085 192.099 27.8593 192.153 28.3599 192.36C28.8604 192.567 29.2883 192.918 29.5893 193.368C29.8904 193.818 30.051 194.348 30.051 194.889C30.0504 195.614 29.762 196.31 29.2491 196.823C28.7362 197.336 28.0407 197.625 27.3151 197.626ZM27.3151 193.615C27.0629 193.615 26.8164 193.689 26.6067 193.829C26.397 193.969 26.2336 194.168 26.1371 194.401C26.0406 194.634 26.0153 194.89 26.0645 195.138C26.1137 195.385 26.2352 195.612 26.4135 195.79C26.5918 195.968 26.819 196.09 27.0663 196.139C27.3137 196.188 27.57 196.163 27.803 196.067C28.036 195.97 28.2351 195.807 28.3752 195.597C28.5153 195.388 28.5901 195.141 28.5901 194.889C28.5894 194.551 28.4549 194.227 28.2159 193.989C27.9769 193.75 27.653 193.615 27.3151 193.615Z" fill="#DEDEDE"/>
<path d="M74.4525 283.65C74.3107 283.645 74.1761 283.587 74.0761 283.486C73.9761 283.385 73.9182 283.25 73.9141 283.109C73.9101 282.967 73.9603 282.829 74.0545 282.723C74.1487 282.617 74.2798 282.551 74.4211 282.538C76.2538 282.436 78.1205 282.253 79.9506 281.993C80.0253 281.978 80.1024 281.978 80.1771 281.994C80.2517 282.009 80.3224 282.04 80.3847 282.084C80.4471 282.128 80.4997 282.184 80.5395 282.249C80.5792 282.314 80.6052 282.387 80.6158 282.462C80.6263 282.538 80.6213 282.614 80.601 282.688C80.5807 282.761 80.5455 282.83 80.4977 282.889C80.4498 282.949 80.3903 282.997 80.3228 283.033C80.2552 283.068 80.1812 283.09 80.1051 283.095C78.2436 283.357 76.3533 283.545 74.4839 283.65H74.4525ZM66.6163 283.626H66.5797C64.7103 283.509 62.82 283.31 60.9637 283.035C60.8891 283.027 60.817 283.004 60.7516 282.967C60.6862 282.93 60.6289 282.88 60.5832 282.821C60.5374 282.762 60.5041 282.694 60.4853 282.621C60.4664 282.548 60.4624 282.473 60.4735 282.398C60.4846 282.324 60.5106 282.253 60.5499 282.189C60.5892 282.125 60.6409 282.07 60.7021 282.027C60.7633 281.983 60.8326 281.952 60.9059 281.936C60.9792 281.92 61.0549 281.919 61.1287 281.933C62.9614 282.195 64.8098 282.399 66.6504 282.514C66.7918 282.527 66.9229 282.594 67.0169 282.7C67.111 282.806 67.1609 282.945 67.1566 283.086C67.1523 283.228 67.0939 283.363 66.9936 283.463C66.8932 283.564 66.7583 283.622 66.6163 283.626ZM87.7109 281.556C87.5744 281.558 87.442 281.51 87.339 281.42C87.236 281.331 87.1695 281.207 87.1524 281.071C87.1352 280.936 87.1685 280.799 87.2459 280.687C87.3234 280.575 87.4395 280.495 87.5721 280.462C89.3577 279.994 91.1433 279.444 92.8765 278.829C92.9467 278.798 93.0225 278.782 93.0993 278.781C93.176 278.781 93.2521 278.796 93.3227 278.826C93.3932 278.856 93.4568 278.901 93.5094 278.957C93.562 279.013 93.6025 279.079 93.6284 279.151C93.6542 279.223 93.6648 279.3 93.6596 279.377C93.6544 279.453 93.6334 279.528 93.598 279.596C93.5625 279.664 93.5134 279.724 93.4537 279.772C93.394 279.821 93.325 279.856 93.2509 279.876C91.4863 280.502 89.6693 281.059 87.8549 281.535C87.8072 281.549 87.7579 281.556 87.7083 281.556H87.7109ZM53.3737 281.428C53.324 281.429 53.2745 281.422 53.227 281.407C51.4179 280.915 49.6087 280.337 47.8467 279.693C47.7759 279.67 47.7105 279.632 47.6544 279.583C47.5983 279.534 47.5527 279.474 47.5202 279.407C47.4877 279.339 47.4691 279.266 47.4653 279.192C47.4616 279.117 47.4728 279.043 47.4984 278.973C47.524 278.903 47.5634 278.839 47.6143 278.784C47.6652 278.729 47.7265 278.686 47.7946 278.655C47.8627 278.625 47.9363 278.608 48.0109 278.607C48.0855 278.605 48.1597 278.619 48.229 278.646C49.9622 279.28 51.7425 279.847 53.5203 280.334C53.6495 280.371 53.7612 280.452 53.835 280.565C53.9087 280.677 53.9395 280.812 53.9217 280.945C53.9039 281.078 53.8386 281.2 53.7379 281.289C53.6373 281.378 53.5079 281.427 53.3737 281.428ZM100.275 276.859C100.171 276.858 100.07 276.829 99.9814 276.774C99.8931 276.719 99.8218 276.64 99.7754 276.547C99.7434 276.481 99.7248 276.409 99.7206 276.336C99.7165 276.263 99.7268 276.189 99.7512 276.12C99.7755 276.051 99.8133 275.987 99.8624 275.932C99.9115 275.877 99.9709 275.833 100.037 275.801C101.689 274.985 103.326 274.085 104.902 273.129C104.964 273.089 105.034 273.062 105.108 273.049C105.181 273.036 105.257 273.038 105.329 273.054C105.402 273.071 105.47 273.102 105.531 273.146C105.591 273.189 105.642 273.245 105.681 273.308C105.72 273.372 105.745 273.443 105.756 273.517C105.767 273.59 105.763 273.665 105.744 273.738C105.725 273.81 105.692 273.877 105.647 273.936C105.602 273.996 105.545 274.045 105.48 274.082C103.878 275.053 102.213 275.969 100.532 276.799C100.452 276.838 100.365 276.859 100.275 276.859ZM40.8431 276.597C40.7522 276.599 40.6622 276.578 40.5813 276.537C38.9109 275.689 37.2536 274.76 35.6565 273.776C35.5913 273.739 35.5343 273.689 35.4887 273.629C35.4432 273.57 35.4102 273.502 35.3916 273.429C35.3731 273.356 35.3694 273.281 35.3807 273.207C35.3921 273.133 35.4183 273.062 35.4577 272.998C35.4972 272.934 35.5491 272.879 35.6104 272.836C35.6717 272.792 35.741 272.762 35.8144 272.746C35.8877 272.73 35.9634 272.73 36.0371 272.744C36.1107 272.758 36.1808 272.787 36.243 272.828C37.8139 273.797 39.4424 274.71 41.0866 275.545C41.195 275.604 41.2808 275.697 41.3304 275.81C41.38 275.924 41.3906 276.05 41.3607 276.17C41.3307 276.289 41.2619 276.396 41.1649 276.472C41.0679 276.549 40.9483 276.591 40.8248 276.592L40.8431 276.597ZM111.628 269.711C111.512 269.711 111.4 269.674 111.306 269.607C111.212 269.54 111.141 269.445 111.104 269.336C111.066 269.227 111.063 269.108 111.096 268.998C111.128 268.887 111.194 268.789 111.285 268.717C112.738 267.581 114.165 266.362 115.511 265.116C115.619 265.018 115.762 264.966 115.909 264.972C116.055 264.979 116.193 265.042 116.293 265.15C116.393 265.257 116.447 265.399 116.442 265.546C116.438 265.692 116.376 265.831 116.27 265.932C114.895 267.207 113.447 268.44 111.971 269.596C111.875 269.672 111.756 269.714 111.633 269.714L111.628 269.711ZM29.5457 269.358C29.4194 269.358 29.2968 269.316 29.1975 269.238C27.7287 268.071 26.2914 266.83 24.9273 265.545C24.8687 265.497 24.8206 265.436 24.7861 265.369C24.7515 265.301 24.7313 265.227 24.7265 265.151C24.7217 265.075 24.7326 264.999 24.7584 264.927C24.7842 264.855 24.8244 264.79 24.8765 264.734C24.9286 264.679 24.9915 264.635 25.0614 264.604C25.1313 264.574 25.2066 264.558 25.2827 264.558C25.3589 264.558 25.4342 264.574 25.5041 264.604C25.574 264.634 25.637 264.678 25.6892 264.734C27.0323 265.998 28.4461 267.217 29.8783 268.364C29.969 268.435 30.0352 268.534 30.0675 268.645C30.0999 268.756 30.0969 268.874 30.0589 268.984C30.0209 269.093 29.9498 269.188 29.8555 269.255C29.7613 269.322 29.6484 269.358 29.5327 269.358H29.5457ZM121.307 260.423C121.201 260.422 121.098 260.391 121.009 260.333C120.92 260.276 120.849 260.194 120.805 260.098C120.76 260.002 120.744 259.895 120.758 259.79C120.772 259.685 120.815 259.586 120.883 259.505C122.08 258.102 123.239 256.626 124.302 255.129C124.391 255.015 124.52 254.94 124.663 254.919C124.805 254.898 124.951 254.934 125.068 255.018C125.185 255.102 125.265 255.228 125.292 255.37C125.318 255.511 125.288 255.658 125.208 255.778C124.116 257.301 122.949 258.798 121.734 260.227C121.682 260.289 121.618 260.339 121.545 260.373C121.472 260.408 121.393 260.426 121.312 260.426L121.307 260.423ZM19.9292 260.005C19.8475 260.005 19.7668 259.987 19.6927 259.952C19.6186 259.918 19.5528 259.868 19.4998 259.806C18.2955 258.366 17.1435 256.862 16.0596 255.331C16.0136 255.271 15.9801 255.203 15.9613 255.13C15.9424 255.057 15.9384 254.981 15.9497 254.907C15.961 254.832 15.9872 254.761 16.0268 254.697C16.0664 254.633 16.1185 254.578 16.1801 254.534C16.2416 254.491 16.3113 254.461 16.385 254.445C16.4586 254.429 16.5346 254.429 16.6085 254.443C16.6824 254.458 16.7526 254.487 16.8148 254.529C16.8771 254.572 16.9301 254.626 16.9707 254.689C18.018 256.194 19.17 257.676 20.356 259.089C20.4232 259.17 20.4659 259.269 20.4792 259.374C20.4926 259.479 20.476 259.585 20.4313 259.681C20.3867 259.777 20.3159 259.858 20.227 259.915C20.1382 259.973 20.0349 260.004 19.9292 260.005ZM128.931 249.382C128.834 249.381 128.739 249.356 128.655 249.308C128.571 249.26 128.501 249.19 128.452 249.107C128.403 249.024 128.376 248.929 128.374 248.832C128.372 248.736 128.396 248.64 128.442 248.555C129.332 246.94 130.164 245.268 130.913 243.583C130.941 243.513 130.983 243.45 131.036 243.397C131.089 243.344 131.152 243.302 131.221 243.274C131.291 243.246 131.365 243.232 131.44 243.234C131.515 243.235 131.589 243.251 131.657 243.282C131.726 243.312 131.787 243.356 131.838 243.411C131.889 243.465 131.929 243.53 131.954 243.6C131.98 243.67 131.991 243.745 131.987 243.82C131.983 243.895 131.965 243.968 131.932 244.035C131.17 245.747 130.324 247.437 129.418 249.089C129.372 249.177 129.303 249.251 129.218 249.303C129.133 249.355 129.036 249.383 128.937 249.385L128.931 249.382ZM12.3994 248.906C12.2989 248.906 12.2002 248.878 12.114 248.827C12.0278 248.775 11.9572 248.701 11.9098 248.613C11.0196 246.961 10.1896 245.252 9.44347 243.533C9.3848 243.396 9.38273 243.242 9.43772 243.104C9.49271 242.966 9.60026 242.856 9.73671 242.797C9.87315 242.739 10.0273 242.737 10.1653 242.792C10.3033 242.847 10.4137 242.954 10.4724 243.09C11.2055 244.781 12.0197 246.461 12.8942 248.084C12.9291 248.148 12.951 248.219 12.9586 248.291C12.9661 248.364 12.9593 248.438 12.9384 248.508C12.9174 248.578 12.8829 248.643 12.8367 248.699C12.7904 248.756 12.7335 248.803 12.6691 248.838C12.5867 248.883 12.4937 248.907 12.3994 248.906ZM134.191 237.037C134.135 237.037 134.079 237.028 134.026 237.011C133.885 236.967 133.768 236.869 133.699 236.739C133.63 236.608 133.616 236.456 133.66 236.315C134.204 234.554 134.683 232.748 135.079 230.947C135.11 230.803 135.198 230.678 135.322 230.598C135.446 230.519 135.597 230.492 135.741 230.523C135.885 230.555 136.011 230.642 136.09 230.767C136.17 230.891 136.197 231.041 136.165 231.185C135.765 233.017 135.278 234.849 134.723 236.645C134.688 236.758 134.617 236.857 134.521 236.928C134.426 236.999 134.31 237.037 134.191 237.037ZM7.2704 236.514C7.1522 236.512 7.03779 236.472 6.94367 236.4C6.84955 236.329 6.7806 236.229 6.74676 236.116C6.22313 234.326 5.744 232.486 5.35913 230.646C5.3384 230.573 5.33301 230.496 5.34331 230.42C5.35361 230.344 5.37938 230.271 5.41901 230.206C5.45864 230.141 5.51129 230.084 5.57369 230.04C5.63609 229.996 5.70691 229.965 5.78174 229.949C5.85657 229.934 5.93382 229.934 6.00869 229.949C6.08356 229.965 6.15446 229.995 6.21696 230.039C6.27947 230.083 6.33227 230.14 6.37206 230.205C6.41185 230.27 6.4378 230.343 6.44829 230.419C6.82793 232.227 7.28872 234.035 7.81497 235.797C7.83628 235.867 7.84348 235.94 7.83617 236.013C7.82885 236.086 7.80717 236.157 7.77236 236.221C7.73755 236.286 7.69031 236.343 7.63336 236.389C7.57642 236.435 7.51089 236.47 7.44058 236.49C7.38511 236.505 7.32772 236.511 7.2704 236.509V236.514ZM136.846 223.886H136.791C136.718 223.879 136.648 223.858 136.583 223.824C136.518 223.79 136.461 223.743 136.415 223.687C136.368 223.63 136.333 223.565 136.312 223.495C136.291 223.425 136.284 223.352 136.291 223.279C136.469 221.447 136.568 219.581 136.592 217.736C136.594 217.587 136.655 217.445 136.761 217.341C136.868 217.237 137.011 217.18 137.16 217.181C137.309 217.183 137.451 217.244 137.555 217.35C137.659 217.457 137.717 217.6 137.715 217.749C137.694 219.626 137.59 221.52 137.409 223.386C137.394 223.524 137.328 223.652 137.224 223.743C137.119 223.835 136.985 223.884 136.846 223.881V223.886ZM4.73078 223.334C4.59423 223.331 4.46363 223.278 4.36374 223.185C4.26384 223.091 4.2016 222.965 4.18882 222.829C4.02125 220.958 3.927 219.06 3.927 217.189C3.92542 217.046 3.97897 216.909 4.0765 216.804C4.17402 216.7 4.30803 216.637 4.45063 216.629C4.59763 216.629 4.73869 216.687 4.84312 216.791C4.94756 216.894 5.00692 217.034 5.0083 217.181C5.0083 219.013 5.10779 220.89 5.27012 222.727C5.27695 222.8 5.26927 222.873 5.24753 222.943C5.22579 223.013 5.19041 223.078 5.14343 223.134C5.09646 223.191 5.03882 223.237 4.97383 223.271C4.90885 223.305 4.83781 223.325 4.76481 223.332L4.73078 223.334ZM136.775 210.466C136.638 210.465 136.506 210.414 136.404 210.323C136.302 210.231 136.238 210.105 136.223 209.969C136.026 208.137 135.752 206.305 135.403 204.473V204.402C135.389 204.33 135.39 204.257 135.404 204.185C135.419 204.114 135.447 204.046 135.488 203.985C135.529 203.925 135.582 203.873 135.642 203.833C135.703 203.792 135.772 203.764 135.843 203.75C135.915 203.737 135.989 203.737 136.06 203.751C136.132 203.766 136.2 203.795 136.26 203.835C136.321 203.876 136.373 203.929 136.413 203.989C136.453 204.05 136.481 204.118 136.495 204.19L136.511 204.263C136.864 206.095 137.144 207.988 137.343 209.846C137.351 209.919 137.345 209.992 137.324 210.063C137.304 210.133 137.27 210.199 137.224 210.256C137.178 210.313 137.121 210.36 137.057 210.396C136.992 210.431 136.922 210.453 136.849 210.461L136.775 210.466ZM4.88525 209.914H4.81979C4.67296 209.897 4.5389 209.822 4.4471 209.706C4.35529 209.59 4.31325 209.443 4.3302 209.296C4.54227 207.435 4.83812 205.559 5.20728 203.719C5.24298 203.581 5.33027 203.462 5.45119 203.386C5.57211 203.31 5.71746 203.284 5.85734 203.312C5.99721 203.34 6.12096 203.421 6.20313 203.538C6.28529 203.654 6.31962 203.798 6.29906 203.939C5.93513 205.747 5.64713 207.603 5.43768 209.435C5.41824 209.568 5.35179 209.689 5.2504 209.777C5.14902 209.865 5.01945 209.913 4.88525 209.914ZM134.003 197.265C133.886 197.263 133.772 197.224 133.678 197.154C133.584 197.085 133.515 196.987 133.479 196.875C132.921 195.117 132.28 193.363 131.576 191.662C131.542 191.594 131.523 191.519 131.519 191.443C131.515 191.367 131.528 191.291 131.555 191.219C131.582 191.148 131.623 191.083 131.676 191.028C131.729 190.973 131.793 190.93 131.864 190.901C131.934 190.872 132.01 190.858 132.086 190.859C132.163 190.86 132.238 190.877 132.307 190.909C132.377 190.941 132.439 190.986 132.49 191.043C132.541 191.099 132.58 191.166 132.605 191.238C133.322 192.968 133.974 194.75 134.542 196.538C134.564 196.608 134.573 196.681 134.567 196.754C134.561 196.827 134.54 196.898 134.507 196.963C134.473 197.029 134.427 197.086 134.371 197.134C134.315 197.181 134.251 197.217 134.181 197.239C134.123 197.258 134.063 197.266 134.003 197.265ZM7.75214 196.813C7.69353 196.813 7.63523 196.804 7.57934 196.786C7.43909 196.74 7.32296 196.64 7.25627 196.508C7.18957 196.376 7.17771 196.223 7.22327 196.082C7.80974 194.303 8.47737 192.526 9.21046 190.799C9.23709 190.728 9.27759 190.664 9.32953 190.61C9.38147 190.556 9.44379 190.513 9.51276 190.484C9.58174 190.454 9.65594 190.439 9.73094 190.439C9.80593 190.439 9.88018 190.454 9.94924 190.483C10.0183 190.512 10.0808 190.555 10.1329 190.609C10.185 190.663 10.2257 190.727 10.2525 190.797C10.2794 190.867 10.2918 190.942 10.2891 191.017C10.2864 191.091 10.2686 191.165 10.2368 191.233C9.51416 192.931 8.857 194.68 8.28362 196.43C8.24664 196.542 8.17533 196.639 8.07988 196.708C7.98442 196.776 7.86971 196.813 7.75214 196.813ZM128.659 184.968C128.56 184.968 128.463 184.941 128.378 184.891C128.293 184.841 128.222 184.769 128.175 184.682C127.271 183.078 126.29 181.49 125.253 179.972C125.178 179.849 125.154 179.703 125.184 179.564C125.215 179.424 125.298 179.301 125.416 179.221C125.534 179.14 125.679 179.109 125.82 179.132C125.961 179.155 126.088 179.232 126.174 179.346C127.222 180.898 128.227 182.513 129.146 184.146C129.193 184.231 129.218 184.327 129.217 184.424C129.216 184.521 129.189 184.616 129.14 184.7C129.091 184.784 129.021 184.854 128.936 184.902C128.852 184.95 128.756 184.976 128.659 184.976V184.968ZM13.1979 184.554C13.1006 184.554 13.0051 184.529 12.9204 184.481C12.7925 184.407 12.699 184.286 12.6602 184.144C12.6215 184.002 12.6406 183.85 12.7136 183.722C13.6456 182.094 14.6562 180.487 15.7192 178.943C15.7595 178.88 15.812 178.826 15.8737 178.784C15.9354 178.741 16.0049 178.712 16.0782 178.697C16.1515 178.682 16.227 178.682 16.3003 178.697C16.3735 178.712 16.443 178.742 16.5047 178.784C16.5663 178.826 16.6188 178.88 16.6591 178.943C16.6993 179.006 16.7264 179.077 16.7389 179.151C16.7514 179.224 16.7489 179.3 16.7316 179.372C16.7143 179.445 16.6825 179.514 16.6382 179.574C15.5909 181.092 14.596 182.675 13.6823 184.285C13.632 184.365 13.5622 184.431 13.4792 184.477C13.3963 184.523 13.3031 184.547 13.2084 184.546L13.1979 184.554ZM120.925 174.005C120.845 174.005 120.767 173.987 120.694 173.954C120.622 173.92 120.558 173.872 120.506 173.811C119.296 172.421 118.014 171.063 116.689 169.778C116.6 169.671 116.554 169.535 116.56 169.396C116.566 169.257 116.624 169.125 116.723 169.027C116.821 168.929 116.953 168.871 117.092 168.864C117.231 168.858 117.367 168.904 117.474 168.993C118.82 170.302 120.124 171.681 121.354 173.094C121.424 173.175 121.468 173.274 121.483 173.38C121.498 173.485 121.482 173.593 121.438 173.69C121.394 173.787 121.323 173.87 121.233 173.928C121.144 173.986 121.039 174.017 120.933 174.018L120.925 174.005ZM20.9974 173.638C20.8905 173.637 20.786 173.606 20.6964 173.548C20.6068 173.489 20.5358 173.406 20.4917 173.309C20.4477 173.212 20.4324 173.104 20.4478 172.998C20.4632 172.892 20.5086 172.793 20.5785 172.712C21.8169 171.304 23.1312 169.933 24.4822 168.634C24.5348 168.583 24.5971 168.542 24.6654 168.515C24.7337 168.487 24.8068 168.473 24.8805 168.474C24.9542 168.475 25.027 168.49 25.0947 168.519C25.1625 168.548 25.2239 168.59 25.2755 168.642C25.3271 168.695 25.3678 168.757 25.3953 168.825C25.4228 168.894 25.4366 168.967 25.4359 169.04C25.4352 169.114 25.4199 169.187 25.3911 169.255C25.3622 169.322 25.3203 169.384 25.2677 169.435C23.9376 170.712 22.6495 172.052 21.4294 173.447C21.3762 173.506 21.3111 173.553 21.2384 173.584C21.1657 173.616 21.0872 173.632 21.0079 173.63L20.9974 173.638ZM111.146 164.816C111.024 164.816 110.905 164.776 110.808 164.701C109.345 163.581 107.813 162.508 106.261 161.513C106.144 161.43 106.064 161.305 106.036 161.165C106.009 161.024 106.037 160.878 106.115 160.758C106.192 160.637 106.313 160.551 106.452 160.518C106.592 160.484 106.739 160.505 106.863 160.576C108.434 161.587 110.005 162.67 111.486 163.816C111.579 163.887 111.647 163.985 111.681 164.097C111.715 164.209 111.713 164.328 111.675 164.438C111.637 164.549 111.566 164.644 111.471 164.712C111.376 164.78 111.263 164.816 111.146 164.816ZM30.8286 164.51C30.7116 164.51 30.5974 164.474 30.5022 164.406C30.4071 164.338 30.3358 164.241 30.2984 164.13C30.261 164.02 30.2595 163.9 30.2941 163.788C30.3286 163.676 30.3975 163.578 30.4909 163.508C31.9885 162.377 33.5489 161.296 35.1355 160.296C35.2609 160.218 35.4124 160.192 35.5567 160.225C35.7011 160.258 35.8265 160.346 35.9053 160.472C35.9841 160.597 36.0099 160.748 35.977 160.893C35.9441 161.037 35.8552 161.162 35.7298 161.241C34.172 162.223 32.6352 163.285 31.1638 164.395C31.0698 164.464 30.956 164.502 30.8391 164.502L30.8286 164.51ZM99.723 157.771C99.6396 157.771 99.5573 157.752 99.4822 157.716C97.8222 156.91 96.1073 156.167 94.3872 155.505C94.2483 155.451 94.1363 155.345 94.0756 155.21C94.015 155.074 94.0107 154.92 94.0639 154.781C94.117 154.642 94.2231 154.53 94.3589 154.469C94.4946 154.409 94.6489 154.405 94.7878 154.458C96.5367 155.133 98.2804 155.889 99.9665 156.708C100.074 156.767 100.159 156.858 100.209 156.97C100.259 157.081 100.271 157.206 100.244 157.324C100.216 157.443 100.15 157.55 100.056 157.628C99.962 157.705 99.845 157.75 99.723 157.755V157.771ZM42.3119 157.556C42.1856 157.556 42.063 157.513 41.9643 157.434C41.8657 157.356 41.7967 157.246 41.7687 157.122C41.7407 156.999 41.7554 156.87 41.8103 156.757C41.8652 156.643 41.9572 156.551 42.071 156.496C43.765 155.693 45.5139 154.952 47.2707 154.293C47.3395 154.267 47.4127 154.255 47.486 154.258C47.5594 154.26 47.6316 154.277 47.6985 154.307C47.7654 154.338 47.8256 154.381 47.8757 154.435C47.9258 154.488 47.9649 154.551 47.9907 154.62C48.0165 154.689 48.0285 154.762 48.026 154.835C48.0235 154.909 48.0066 154.981 47.9762 155.048C47.9458 155.114 47.9025 155.175 47.8489 155.225C47.7952 155.275 47.7322 155.314 47.6634 155.34C45.9355 155.986 44.2153 156.714 42.5502 157.504C42.4756 157.539 42.3942 157.557 42.3119 157.556ZM87.1297 153.167C87.0829 153.167 87.0363 153.16 86.9909 153.149C85.2027 152.694 83.3752 152.312 81.5556 152.011C81.4135 151.982 81.2879 151.9 81.2056 151.781C81.1232 151.662 81.0905 151.515 81.1143 151.372C81.1381 151.229 81.2166 151.102 81.3332 151.015C81.4498 150.929 81.5953 150.892 81.7389 150.912C83.5873 151.218 85.4488 151.608 87.2658 152.068C87.3988 152.101 87.5153 152.181 87.5932 152.293C87.671 152.406 87.7047 152.543 87.6879 152.679C87.6711 152.814 87.6049 152.939 87.502 153.029C87.399 153.12 87.2665 153.169 87.1297 153.167ZM54.955 153.063C54.8204 153.06 54.6912 153.009 54.5914 152.919C54.4915 152.829 54.4277 152.705 54.4118 152.572C54.3958 152.438 54.4288 152.303 54.5046 152.192C54.5804 152.08 54.6939 152 54.8241 151.966C55.929 151.705 57.0627 151.443 58.1885 151.231C58.9058 151.092 59.6363 150.969 60.3589 150.851C60.5006 150.837 60.6424 150.877 60.7553 150.964C60.8682 151.051 60.9436 151.178 60.966 151.318C60.9885 151.459 60.9562 151.603 60.876 151.72C60.7957 151.838 60.6735 151.92 60.5343 151.951C59.8222 152.063 59.1048 152.189 58.3979 152.325C57.2904 152.537 56.1777 152.78 55.0886 153.047C55.0443 153.053 54.9995 153.054 54.955 153.05V153.063ZM73.8477 151.199H73.832C72.8554 151.158 71.8658 151.134 70.8918 151.134C70.0252 151.134 69.1455 151.152 68.2736 151.186C68.1981 151.194 68.1219 151.185 68.0497 151.162C67.9775 151.139 67.9108 151.101 67.8537 151.051C67.7965 151.002 67.7502 150.941 67.7174 150.872C67.6846 150.804 67.6662 150.729 67.6631 150.654C67.6601 150.578 67.6726 150.502 67.6998 150.432C67.727 150.361 67.7683 150.296 67.8213 150.242C67.8743 150.188 67.9378 150.145 68.0079 150.116C68.078 150.087 68.1533 150.073 68.2291 150.074C69.1115 150.037 70.0042 150.022 70.8866 150.022C71.8789 150.022 72.8842 150.043 73.8765 150.087C74.0244 150.09 74.165 150.152 74.2674 150.259C74.3698 150.366 74.4255 150.509 74.4224 150.656C74.4193 150.804 74.3575 150.945 74.2507 151.047C74.1439 151.149 74.0008 151.205 73.8529 151.202L73.8477 151.199Z" fill="#DEDEDE"/>
<path d="M274.74 233.057L273.776 233.114C273.631 233.119 273.49 233.066 273.383 232.969C273.276 232.871 273.211 232.736 273.203 232.591C273.194 232.446 273.242 232.304 273.336 232.194C273.43 232.084 273.564 232.015 273.708 232.002C275.541 231.9 277.373 231.74 279.206 231.562C279.353 231.547 279.501 231.591 279.615 231.684C279.73 231.777 279.803 231.912 279.819 232.059C279.834 232.207 279.79 232.354 279.697 232.469C279.604 232.584 279.469 232.657 279.321 232.672C277.787 232.829 276.258 232.957 274.74 233.057ZM266.05 233.295H266.005C264.173 233.276 262.295 233.214 260.457 233.106C260.384 233.102 260.313 233.084 260.247 233.052C260.181 233.021 260.123 232.976 260.074 232.922C260.025 232.867 259.988 232.804 259.964 232.735C259.94 232.666 259.93 232.593 259.934 232.52C259.943 232.373 260.01 232.235 260.121 232.137C260.231 232.039 260.376 231.989 260.523 231.997C262.356 232.104 264.188 232.167 266.021 232.185C266.163 232.19 266.297 232.249 266.397 232.349C266.497 232.45 266.555 232.585 266.559 232.727C266.563 232.868 266.513 233.006 266.419 233.112C266.325 233.218 266.194 233.285 266.052 233.297L266.05 233.295ZM286.951 231.62C286.81 231.626 286.672 231.578 286.565 231.487C286.458 231.395 286.39 231.267 286.373 231.127C286.357 230.987 286.395 230.847 286.478 230.733C286.561 230.62 286.684 230.542 286.822 230.515C288.624 230.207 290.441 229.853 292.221 229.469C292.364 229.441 292.511 229.471 292.632 229.551C292.754 229.631 292.839 229.755 292.87 229.897C292.901 230.039 292.875 230.187 292.799 230.311C292.722 230.434 292.6 230.522 292.459 230.557C290.663 230.95 288.83 231.308 287.008 231.617C286.989 231.62 286.97 231.62 286.951 231.62ZM252.818 232.405C252.783 232.409 252.748 232.409 252.713 232.405C250.88 232.175 249.047 231.9 247.215 231.583C247.069 231.558 246.939 231.476 246.854 231.355C246.769 231.234 246.735 231.084 246.76 230.938C246.786 230.792 246.868 230.663 246.989 230.577C247.11 230.492 247.26 230.459 247.406 230.484C249.202 230.798 251.032 231.073 252.844 231.301C252.979 231.32 253.103 231.389 253.191 231.493C253.279 231.598 253.325 231.731 253.321 231.868C253.318 232.005 253.264 232.135 253.17 232.235C253.076 232.334 252.949 232.396 252.812 232.408L252.818 232.405ZM299.871 228.66C299.733 228.672 299.595 228.631 299.485 228.547C299.375 228.462 299.301 228.34 299.277 228.203C299.253 228.066 299.281 227.926 299.356 227.809C299.43 227.692 299.546 227.607 299.68 227.571C301.432 227.061 303.196 226.503 304.916 225.912C304.987 225.878 305.064 225.86 305.143 225.858C305.221 225.856 305.299 225.871 305.371 225.901C305.443 225.931 305.509 225.977 305.562 226.034C305.616 226.091 305.657 226.158 305.683 226.232C305.708 226.306 305.718 226.385 305.711 226.463C305.705 226.541 305.682 226.617 305.644 226.685C305.606 226.754 305.554 226.814 305.491 226.861C305.429 226.908 305.357 226.941 305.28 226.959C303.537 227.555 301.756 228.118 299.986 228.631C299.951 228.644 299.914 228.653 299.876 228.657L299.871 228.66ZM239.774 229.997C239.718 230.002 239.661 229.997 239.606 229.982C237.816 229.544 236.009 229.058 234.236 228.532C234.163 228.514 234.095 228.481 234.035 228.435C233.974 228.39 233.924 228.333 233.887 228.267C233.849 228.202 233.825 228.13 233.817 228.055C233.808 227.98 233.815 227.904 233.836 227.832C233.857 227.76 233.893 227.693 233.941 227.635C233.99 227.577 234.049 227.529 234.116 227.495C234.183 227.46 234.256 227.44 234.331 227.435C234.407 227.429 234.482 227.439 234.553 227.464C236.307 227.987 238.096 228.466 239.871 228.901C239.999 228.933 240.112 229.01 240.189 229.118C240.266 229.226 240.302 229.358 240.29 229.49C240.278 229.622 240.22 229.746 240.125 229.839C240.031 229.932 239.906 229.988 239.774 229.997ZM312.373 224.24C312.24 224.254 312.106 224.219 311.996 224.142C311.886 224.064 311.808 223.95 311.776 223.82C311.744 223.69 311.761 223.552 311.822 223.433C311.884 223.314 311.986 223.221 312.111 223.172C313.795 222.465 315.483 221.706 317.13 220.921C317.197 220.885 317.27 220.863 317.345 220.856C317.421 220.849 317.497 220.857 317.569 220.88C317.641 220.904 317.708 220.942 317.765 220.992C317.822 221.041 317.868 221.103 317.9 221.171C317.933 221.239 317.951 221.314 317.954 221.389C317.957 221.465 317.945 221.54 317.917 221.611C317.89 221.682 317.849 221.746 317.796 221.8C317.743 221.854 317.679 221.897 317.609 221.926C315.947 222.711 314.242 223.483 312.543 224.198C312.489 224.221 312.432 224.235 312.373 224.24ZM227.084 226.108C227.005 226.114 226.927 226.102 226.853 226.074C225.125 225.433 223.387 224.742 221.688 224.02C221.55 223.962 221.441 223.852 221.385 223.714C221.329 223.575 221.33 223.421 221.388 223.283C221.446 223.146 221.556 223.037 221.694 222.981C221.832 222.924 221.987 222.926 222.125 222.983C223.808 223.701 225.528 224.386 227.241 225.02C227.36 225.064 227.461 225.148 227.525 225.258C227.59 225.367 227.616 225.496 227.597 225.622C227.579 225.748 227.518 225.864 227.424 225.95C227.331 226.037 227.211 226.089 227.084 226.098V226.108ZM324.273 218.422C324.145 218.432 324.017 218.398 323.912 218.326C323.806 218.253 323.729 218.147 323.692 218.024C323.656 217.901 323.663 217.77 323.713 217.651C323.762 217.533 323.851 217.436 323.964 217.375C325.55 216.483 327.137 215.543 328.676 214.572C328.802 214.497 328.951 214.475 329.093 214.509C329.235 214.543 329.358 214.631 329.435 214.755C329.512 214.879 329.538 215.027 329.507 215.17C329.476 215.312 329.39 215.437 329.268 215.517C327.697 216.493 326.105 217.446 324.503 218.346C324.433 218.388 324.354 218.414 324.273 218.422ZM214.925 220.796C214.826 220.801 214.728 220.78 214.64 220.735C212.993 219.903 211.346 219.019 209.744 218.118C209.676 218.084 209.616 218.037 209.567 217.979C209.518 217.921 209.482 217.854 209.46 217.782C209.438 217.71 209.431 217.634 209.439 217.558C209.448 217.483 209.471 217.411 209.509 217.345C209.546 217.279 209.596 217.222 209.657 217.176C209.717 217.13 209.786 217.097 209.859 217.079C209.933 217.061 210.009 217.058 210.084 217.07C210.158 217.082 210.23 217.109 210.293 217.15C211.883 218.053 213.514 218.927 215.142 219.767C215.248 219.824 215.333 219.913 215.384 220.022C215.435 220.131 215.449 220.254 215.425 220.372C215.4 220.489 215.338 220.596 215.248 220.676C215.158 220.755 215.045 220.804 214.925 220.814V220.796ZM335.421 211.285C335.326 211.29 335.232 211.272 335.147 211.232C335.061 211.192 334.987 211.131 334.931 211.055C334.887 210.995 334.856 210.927 334.838 210.856C334.821 210.784 334.818 210.709 334.829 210.636C334.841 210.563 334.867 210.493 334.906 210.43C334.945 210.367 334.996 210.313 335.057 210.27C336.533 209.199 338.002 208.082 339.427 206.943C339.483 206.893 339.549 206.855 339.621 206.831C339.693 206.807 339.769 206.798 339.844 206.804C339.92 206.81 339.993 206.832 340.06 206.868C340.127 206.903 340.185 206.952 340.233 207.011C340.28 207.07 340.315 207.138 340.335 207.211C340.355 207.284 340.36 207.36 340.35 207.435C340.34 207.51 340.314 207.582 340.275 207.647C340.236 207.712 340.184 207.768 340.123 207.812C338.686 208.961 337.201 210.092 335.711 211.17C335.627 211.235 335.526 211.275 335.421 211.285ZM203.465 214.138C203.344 214.145 203.224 214.113 203.122 214.046C201.583 213.031 200.048 211.952 198.559 210.879C198.494 210.839 198.439 210.785 198.396 210.722C198.353 210.659 198.323 210.587 198.309 210.512C198.295 210.437 198.296 210.36 198.313 210.286C198.33 210.211 198.362 210.141 198.407 210.079C198.452 210.018 198.509 209.966 198.575 209.927C198.641 209.889 198.714 209.864 198.79 209.855C198.866 209.846 198.943 209.852 199.016 209.874C199.09 209.896 199.157 209.933 199.216 209.982C200.69 211.055 202.211 212.112 203.738 213.122C203.834 213.186 203.909 213.279 203.95 213.387C203.992 213.495 203.999 213.613 203.97 213.726C203.941 213.838 203.878 213.939 203.79 214.013C203.701 214.088 203.591 214.133 203.476 214.143L203.465 214.138ZM345.692 202.916C345.576 202.924 345.461 202.896 345.363 202.836C345.264 202.775 345.187 202.686 345.141 202.579C345.096 202.473 345.085 202.355 345.11 202.242C345.135 202.13 345.195 202.027 345.281 201.95C346.626 200.717 347.959 199.438 349.245 198.145C349.352 198.056 349.488 198.01 349.627 198.016C349.766 198.022 349.898 198.08 349.996 198.179C350.095 198.277 350.153 198.409 350.159 198.548C350.165 198.687 350.119 198.823 350.03 198.93C348.721 200.238 347.386 201.529 346.027 202.772C345.933 202.858 345.811 202.909 345.684 202.916H345.692ZM192.822 206.234C192.679 206.243 192.538 206.197 192.427 206.106C191.016 204.923 189.61 203.693 188.256 202.442C188.198 202.394 188.15 202.334 188.115 202.267C188.08 202.199 188.059 202.126 188.054 202.05C188.049 201.974 188.059 201.898 188.084 201.827C188.109 201.755 188.149 201.69 188.2 201.634C188.251 201.578 188.314 201.533 188.383 201.502C188.452 201.471 188.527 201.455 188.603 201.454C188.679 201.453 188.754 201.467 188.824 201.496C188.894 201.525 188.957 201.568 189.01 201.623C190.353 202.858 191.744 204.078 193.142 205.247C193.227 205.319 193.289 205.414 193.32 205.521C193.351 205.628 193.349 205.742 193.315 205.847C193.28 205.953 193.215 206.046 193.127 206.115C193.04 206.183 192.933 206.224 192.822 206.231V206.234ZM354.937 193.442C354.864 193.447 354.791 193.438 354.722 193.415C354.653 193.391 354.59 193.354 354.536 193.306C354.48 193.258 354.435 193.2 354.402 193.134C354.369 193.069 354.349 192.998 354.344 192.925C354.339 192.852 354.348 192.778 354.372 192.709C354.395 192.639 354.432 192.575 354.481 192.521C355.677 191.144 356.858 189.72 357.989 188.289C358.034 188.228 358.09 188.178 358.154 188.139C358.218 188.101 358.29 188.076 358.364 188.066C358.438 188.056 358.514 188.061 358.586 188.081C358.658 188.101 358.726 188.135 358.784 188.182C358.843 188.228 358.892 188.286 358.928 188.351C358.964 188.417 358.986 188.489 358.994 188.564C359.001 188.638 358.993 188.713 358.971 188.785C358.949 188.856 358.912 188.923 358.864 188.98C357.722 190.424 356.531 191.858 355.321 193.251C355.222 193.359 355.084 193.424 354.937 193.431V193.442ZM183.156 197.161C183.075 197.166 182.993 197.154 182.917 197.124C182.841 197.094 182.772 197.048 182.716 196.988C181.446 195.653 180.192 194.271 178.988 192.882C178.935 192.827 178.894 192.763 178.866 192.692C178.839 192.621 178.827 192.545 178.83 192.47C178.833 192.394 178.852 192.319 178.885 192.251C178.918 192.183 178.964 192.122 179.021 192.072C179.079 192.022 179.146 191.984 179.218 191.961C179.29 191.938 179.367 191.93 179.442 191.938C179.518 191.945 179.591 191.968 179.657 192.005C179.724 192.042 179.782 192.092 179.828 192.152C181.022 193.531 182.266 194.9 183.523 196.221C183.595 196.298 183.645 196.394 183.665 196.497C183.685 196.601 183.676 196.709 183.637 196.807C183.599 196.906 183.533 196.991 183.448 197.054C183.363 197.116 183.262 197.153 183.156 197.161ZM363.055 182.955C362.931 182.964 362.807 182.93 362.705 182.858C362.643 182.817 362.59 182.763 362.549 182.701C362.508 182.639 362.48 182.569 362.467 182.496C362.454 182.423 362.455 182.348 362.471 182.275C362.487 182.203 362.518 182.134 362.561 182.073C363.608 180.571 364.608 179.022 365.572 177.47C365.653 177.353 365.777 177.272 365.917 177.243C366.057 177.215 366.202 177.241 366.323 177.317C366.444 177.392 366.532 177.511 366.568 177.649C366.604 177.787 366.585 177.934 366.517 178.059C365.548 179.629 364.524 181.199 363.48 182.707C363.433 182.778 363.37 182.837 363.297 182.88C363.223 182.923 363.141 182.949 363.055 182.955ZM174.584 187.061C174.492 187.067 174.4 187.051 174.316 187.012C174.232 186.974 174.158 186.915 174.102 186.842C172.995 185.373 171.906 183.861 170.869 182.34C170.786 182.218 170.754 182.068 170.782 181.922C170.809 181.777 170.893 181.649 171.016 181.565C171.138 181.482 171.288 181.451 171.434 181.478C171.579 181.506 171.707 181.59 171.791 181.712C172.817 183.217 173.885 184.716 174.993 186.161C175.037 186.22 175.07 186.287 175.089 186.358C175.108 186.429 175.112 186.504 175.102 186.577C175.091 186.65 175.067 186.72 175.029 186.783C174.992 186.847 174.942 186.902 174.883 186.946C174.798 187.015 174.693 187.055 174.584 187.061ZM369.939 171.621C369.84 171.627 369.741 171.606 369.653 171.562C369.565 171.517 369.49 171.45 369.437 171.366C369.383 171.283 369.353 171.187 369.349 171.088C369.345 170.989 369.368 170.891 369.415 170.804C370.274 169.189 371.104 167.535 371.884 165.887C371.914 165.818 371.957 165.757 372.011 165.706C372.066 165.655 372.129 165.615 372.199 165.589C372.269 165.563 372.343 165.551 372.418 165.554C372.492 165.558 372.565 165.576 372.633 165.607C372.7 165.639 372.76 165.684 372.81 165.74C372.859 165.795 372.897 165.86 372.922 165.93C372.946 166.001 372.956 166.075 372.951 166.15C372.945 166.224 372.925 166.296 372.892 166.363C372.106 168.027 371.266 169.697 370.399 171.335C370.355 171.418 370.29 171.488 370.21 171.538C370.131 171.589 370.04 171.618 369.946 171.623L369.939 171.621ZM167.225 176.07C167.122 176.078 167.018 176.059 166.926 176.013C166.833 175.966 166.756 175.896 166.701 175.808C165.769 174.222 164.868 172.594 164.004 170.969C163.97 170.904 163.949 170.833 163.942 170.76C163.935 170.687 163.942 170.614 163.964 170.543C163.985 170.473 164.02 170.408 164.067 170.352C164.114 170.295 164.171 170.248 164.236 170.214C164.301 170.18 164.372 170.158 164.445 170.151C164.518 170.144 164.591 170.152 164.662 170.173C164.732 170.195 164.797 170.23 164.854 170.277C164.91 170.323 164.957 170.381 164.991 170.445C165.84 172.055 166.738 173.667 167.662 175.237C167.736 175.365 167.757 175.516 167.72 175.659C167.682 175.802 167.59 175.924 167.463 175.999C167.389 176.036 167.307 176.057 167.225 176.059V176.07ZM375.489 159.582C375.407 159.588 375.325 159.575 375.248 159.545C375.111 159.491 375.001 159.385 374.942 159.249C374.883 159.114 374.88 158.96 374.934 158.823C375.604 157.122 376.243 155.382 376.824 153.652C376.884 153.529 376.986 153.433 377.112 153.381C377.237 153.328 377.378 153.324 377.507 153.368C377.635 153.412 377.744 153.502 377.811 153.62C377.878 153.738 377.9 153.877 377.872 154.01C377.28 155.756 376.636 157.512 375.96 159.231C375.922 159.328 375.858 159.411 375.775 159.473C375.691 159.534 375.592 159.571 375.489 159.579V159.582ZM161.174 164.293C161.06 164.301 160.947 164.273 160.849 164.214C160.752 164.155 160.675 164.067 160.629 163.963C159.883 162.28 159.166 160.561 158.501 158.836C158.474 158.767 158.462 158.694 158.464 158.62C158.465 158.547 158.482 158.474 158.512 158.407C158.572 158.271 158.684 158.165 158.823 158.111C158.962 158.058 159.116 158.062 159.252 158.122C159.388 158.182 159.495 158.294 159.548 158.433C160.208 160.137 160.915 161.835 161.643 163.513C161.672 163.58 161.688 163.652 161.69 163.725C161.692 163.798 161.679 163.87 161.652 163.938C161.626 164.007 161.586 164.069 161.535 164.121C161.485 164.174 161.424 164.216 161.357 164.246C161.299 164.27 161.237 164.282 161.174 164.282V164.293ZM379.634 146.975C379.573 146.978 379.512 146.972 379.453 146.957C379.31 146.919 379.189 146.826 379.115 146.699C379.041 146.571 379.02 146.419 379.058 146.277C379.529 144.508 379.961 142.704 380.343 140.92C380.358 140.848 380.388 140.78 380.429 140.72C380.471 140.659 380.524 140.608 380.585 140.568C380.647 140.528 380.716 140.501 380.788 140.487C380.86 140.474 380.934 140.475 381.006 140.49C381.077 140.506 381.145 140.535 381.206 140.576C381.266 140.618 381.318 140.671 381.357 140.732C381.397 140.794 381.425 140.863 381.438 140.935C381.451 141.007 381.45 141.081 381.435 141.152C381.047 142.956 380.61 144.777 380.126 146.562C380.096 146.673 380.033 146.772 379.945 146.846C379.857 146.92 379.748 146.965 379.634 146.975ZM156.514 151.88C156.389 151.887 156.266 151.853 156.164 151.782C156.061 151.712 155.985 151.609 155.948 151.49C155.398 149.731 154.885 147.936 154.422 146.154C154.4 146.082 154.393 146.006 154.401 145.932C154.409 145.857 154.433 145.785 154.469 145.719C154.506 145.654 154.556 145.597 154.615 145.551C154.675 145.505 154.743 145.472 154.815 145.453C154.888 145.434 154.964 145.43 155.038 145.441C155.112 145.452 155.184 145.478 155.248 145.517C155.312 145.557 155.367 145.609 155.41 145.67C155.454 145.731 155.484 145.8 155.5 145.874C155.961 147.64 156.469 149.417 157.011 151.158C157.055 151.299 157.04 151.452 156.972 151.582C156.903 151.713 156.786 151.812 156.645 151.856C156.6 151.87 156.555 151.878 156.508 151.88H156.514ZM382.296 133.982C382.257 133.986 382.218 133.986 382.179 133.982C382.032 133.96 381.901 133.882 381.812 133.764C381.724 133.645 381.686 133.497 381.707 133.351C381.969 131.545 382.192 129.711 382.37 127.894C382.384 127.747 382.456 127.612 382.57 127.519C382.684 127.425 382.83 127.38 382.977 127.394C383.124 127.409 383.259 127.481 383.353 127.594C383.447 127.708 383.491 127.855 383.477 128.002C383.299 129.834 383.077 131.689 382.81 133.511C382.79 133.637 382.728 133.752 382.634 133.838C382.54 133.924 382.419 133.975 382.291 133.982H382.296ZM153.293 139.025C153.158 139.034 153.024 138.993 152.917 138.91C152.81 138.827 152.737 138.708 152.712 138.575C152.367 136.766 152.06 134.911 151.801 133.097C151.798 132.96 151.847 132.826 151.936 132.722C152.026 132.618 152.151 132.551 152.287 132.534C152.424 132.516 152.562 132.55 152.675 132.628C152.788 132.705 152.868 132.822 152.901 132.956C153.162 134.764 153.461 136.588 153.801 138.378C153.829 138.523 153.798 138.673 153.715 138.796C153.632 138.918 153.504 139.002 153.359 139.03L153.293 139.025ZM383.378 120.781C383.305 120.779 383.232 120.763 383.166 120.733C383.099 120.703 383.039 120.66 382.989 120.607C382.939 120.553 382.9 120.491 382.874 120.422C382.848 120.354 382.836 120.281 382.838 120.208C382.891 118.376 382.901 116.544 382.87 114.712C382.863 114.636 382.872 114.559 382.897 114.487C382.921 114.415 382.96 114.348 383.011 114.292C383.062 114.235 383.124 114.189 383.194 114.158C383.263 114.126 383.339 114.109 383.415 114.108C383.491 114.106 383.567 114.12 383.638 114.149C383.708 114.178 383.772 114.222 383.825 114.276C383.878 114.331 383.92 114.396 383.947 114.467C383.974 114.539 383.986 114.615 383.982 114.691C384.016 116.523 384.006 118.402 383.951 120.242C383.948 120.379 383.894 120.51 383.799 120.609C383.705 120.709 383.577 120.77 383.44 120.781H383.378ZM151.552 125.89C151.479 125.895 151.405 125.885 151.336 125.861C151.266 125.838 151.202 125.8 151.147 125.752C151.092 125.703 151.047 125.644 151.015 125.578C150.983 125.511 150.965 125.44 150.961 125.366C150.926 124.934 150.895 124.5 150.869 124.058C150.777 122.652 150.709 121.223 150.67 119.818C150.665 119.67 150.72 119.527 150.821 119.419C150.923 119.311 151.063 119.248 151.211 119.244C151.358 119.239 151.502 119.293 151.61 119.395C151.718 119.496 151.781 119.636 151.785 119.784C151.825 121.179 151.89 122.592 151.979 123.987C152.008 124.416 152.039 124.845 152.071 125.275C152.076 125.348 152.067 125.423 152.043 125.493C152.02 125.563 151.982 125.628 151.934 125.683C151.885 125.739 151.826 125.785 151.759 125.817C151.693 125.85 151.621 125.869 151.547 125.874L151.552 125.89ZM383.077 107.539C382.931 107.548 382.787 107.5 382.676 107.404C382.566 107.309 382.497 107.174 382.485 107.028C382.333 105.215 382.134 103.364 381.893 101.561L381.87 101.386C381.857 101.312 381.859 101.236 381.877 101.163C381.894 101.09 381.926 101.022 381.97 100.961C382.015 100.901 382.071 100.85 382.135 100.812C382.2 100.774 382.272 100.749 382.346 100.739C382.42 100.729 382.496 100.735 382.568 100.755C382.64 100.775 382.708 100.809 382.767 100.856C382.825 100.902 382.874 100.96 382.91 101.026C382.945 101.092 382.967 101.165 382.974 101.239L382.998 101.417C383.239 103.249 383.44 105.102 383.595 106.934C383.607 107.081 383.561 107.227 383.465 107.34C383.37 107.453 383.234 107.523 383.087 107.536L383.077 107.539ZM151.301 112.642H151.243C151.098 112.633 150.961 112.568 150.863 112.46C150.766 112.351 150.714 112.209 150.72 112.064C150.788 110.232 150.906 108.358 151.063 106.523C151.081 106.381 151.154 106.251 151.266 106.161C151.378 106.071 151.521 106.027 151.664 106.04C151.807 106.052 151.94 106.12 152.035 106.228C152.13 106.336 152.179 106.476 152.173 106.62C152.016 108.436 151.911 110.284 151.832 112.116C151.824 112.253 151.765 112.383 151.667 112.48C151.569 112.576 151.439 112.633 151.301 112.639V112.642ZM381.176 94.2386C381.041 94.2477 380.908 94.2075 380.8 94.1257C380.693 94.0439 380.619 93.9259 380.592 93.7937C380.233 92.0036 379.827 90.2004 379.382 88.4313C379.359 88.2922 379.389 88.1494 379.467 88.0317C379.544 87.914 379.664 87.8301 379.801 87.7969C379.938 87.7638 380.083 87.7838 380.206 87.8529C380.329 87.922 380.421 88.0352 380.464 88.1696C380.911 89.9544 381.322 91.7759 381.686 93.5817C381.715 93.7267 381.685 93.8771 381.603 94.0002C381.521 94.1232 381.394 94.2089 381.249 94.2386H381.176ZM152.568 99.4571C152.527 99.4623 152.486 99.4623 152.445 99.4571C152.373 99.4462 152.303 99.4212 152.241 99.3834C152.178 99.3457 152.124 99.296 152.08 99.2371C152.037 99.1783 152.006 99.1115 151.988 99.0405C151.971 98.9696 151.968 98.8959 151.979 98.8237C152.262 96.9918 152.592 95.1598 152.961 93.3462C152.973 93.2718 152.999 93.2005 153.039 93.1368C153.079 93.073 153.132 93.018 153.194 92.975C153.256 92.9321 153.326 92.9021 153.399 92.887C153.473 92.8718 153.549 92.8718 153.623 92.8868C153.697 92.9018 153.767 92.9317 153.829 92.9745C153.891 93.0173 153.943 93.0722 153.984 93.136C154.024 93.1997 154.051 93.2709 154.062 93.3452C154.074 93.4196 154.071 93.4956 154.053 93.5686C153.686 95.3613 153.361 97.1854 153.081 98.9938C153.059 99.1171 152.997 99.2296 152.904 99.3135C152.811 99.3974 152.693 99.4479 152.568 99.4571ZM377.84 81.4253C377.716 81.4329 377.593 81.399 377.491 81.3288C377.388 81.2586 377.312 81.1563 377.275 81.038C376.714 79.3029 376.104 77.5573 375.46 75.851C375.408 75.7121 375.413 75.5583 375.475 75.4234C375.536 75.2884 375.649 75.1833 375.788 75.1313C375.926 75.0792 376.08 75.0844 376.215 75.1458C376.35 75.2071 376.456 75.3196 376.508 75.4584C377.157 77.1804 377.775 78.9443 378.34 80.6926C378.386 80.8331 378.373 80.9859 378.306 81.1174C378.239 81.2489 378.122 81.3484 377.982 81.3939C377.935 81.4058 377.888 81.4137 377.84 81.4175V81.4253ZM155.346 86.4763C155.283 86.4796 155.22 86.4725 155.16 86.4554C155.09 86.436 155.024 86.403 154.966 86.3581C154.909 86.3133 154.861 86.2576 154.825 86.1942C154.789 86.1307 154.766 86.0608 154.757 85.9884C154.748 85.916 154.753 85.8426 154.773 85.7723C155.262 83.9927 155.802 82.2026 156.375 80.4465C156.398 80.377 156.434 80.3125 156.482 80.257C156.53 80.2014 156.588 80.1558 156.653 80.1228C156.719 80.0897 156.79 80.0699 156.863 80.0644C156.936 80.0589 157.01 80.0678 157.079 80.0906C157.149 80.1135 157.213 80.1498 157.269 80.1976C157.324 80.2453 157.37 80.3035 157.403 80.3689C157.436 80.4343 157.456 80.5055 157.462 80.5786C157.467 80.6516 157.458 80.725 157.435 80.7946C156.865 82.5324 156.33 84.3068 155.846 86.0681C155.814 86.1781 155.749 86.2756 155.659 86.3472C155.57 86.4189 155.46 86.4612 155.346 86.4685V86.4763ZM373.052 69.0701C372.938 69.0767 372.826 69.049 372.729 68.9907C372.632 68.9323 372.554 68.846 372.507 68.743C371.75 67.0837 370.936 65.4193 370.109 63.7967C370.039 63.6651 370.025 63.5114 370.069 63.3693C370.113 63.2272 370.212 63.1084 370.343 63.039C370.475 62.9696 370.628 62.9553 370.771 62.9992C370.913 63.0431 371.032 63.1417 371.101 63.2733C371.941 64.9115 372.758 66.5917 373.52 68.2693C373.582 68.4036 373.587 68.5567 373.535 68.6951C373.484 68.8335 373.38 68.9457 373.245 69.0073C373.185 69.0369 373.119 69.0555 373.052 69.0622V69.0701ZM159.593 73.9065C159.51 73.9112 159.426 73.8978 159.349 73.8672C159.212 73.8114 159.103 73.704 159.046 73.5682C158.988 73.4325 158.986 73.2794 159.04 73.1423C159.731 71.4333 160.472 69.7165 161.242 68.039C161.305 67.9063 161.418 67.8038 161.556 67.7537C161.694 67.7035 161.846 67.7098 161.979 67.7711C162.112 67.8325 162.216 67.9439 162.268 68.0812C162.32 68.2186 162.315 68.3708 162.255 68.5048C161.491 70.1457 160.755 71.8573 160.074 73.5479C160.036 73.6465 159.971 73.732 159.885 73.7942C159.8 73.8564 159.698 73.8926 159.593 73.8986V73.9065ZM366.878 57.3534C366.775 57.3632 366.671 57.3439 366.579 57.2976C366.486 57.2513 366.408 57.18 366.354 57.0917C365.414 55.5345 364.422 53.9747 363.409 52.4621C363.327 52.3392 363.297 52.1887 363.325 52.0437C363.354 51.8987 363.439 51.771 363.562 51.6887C363.685 51.6065 363.836 51.5764 363.981 51.6051C364.126 51.6338 364.253 51.719 364.336 51.8418C365.359 53.3702 366.36 54.9431 367.307 56.5186C367.357 56.6002 367.385 56.6933 367.388 56.7889C367.391 56.8845 367.37 56.9793 367.326 57.0641C367.281 57.1489 367.216 57.2208 367.136 57.2729C367.055 57.325 366.963 57.3554 366.867 57.3613L366.878 57.3534ZM165.248 61.9019C165.143 61.9095 165.039 61.8868 164.947 61.8365C164.817 61.7652 164.721 61.6457 164.68 61.5041C164.638 61.3624 164.654 61.2101 164.724 61.0801C165.604 59.4628 166.533 57.8402 167.489 56.2647C167.525 56.1977 167.573 56.1386 167.633 56.0911C167.692 56.0435 167.76 56.0086 167.833 55.9884C167.906 55.9681 167.983 55.963 168.058 55.9734C168.133 55.9837 168.205 56.0093 168.27 56.0485C168.335 56.0878 168.391 56.1398 168.436 56.2016C168.48 56.2633 168.511 56.3334 168.527 56.4075C168.543 56.4816 168.544 56.5583 168.529 56.6327C168.514 56.7072 168.485 56.7779 168.442 56.8405C167.497 58.4107 166.575 60.0097 165.703 61.6114C165.659 61.6948 165.593 61.7653 165.514 61.8161C165.434 61.867 165.342 61.8965 165.248 61.9019ZM359.408 46.4192C359.317 46.4248 359.225 46.4079 359.142 46.37C359.058 46.3322 358.985 46.2745 358.929 46.202C357.816 44.7574 356.651 43.3232 355.473 41.9335C355.378 41.8211 355.331 41.6754 355.343 41.5284C355.355 41.3814 355.425 41.2452 355.537 41.1497C355.65 41.0543 355.796 41.0074 355.943 41.0195C356.09 41.0315 356.226 41.1014 356.322 41.2138C357.513 42.614 358.678 44.0639 359.812 45.5216C359.857 45.5795 359.89 45.6459 359.91 45.7168C359.929 45.7878 359.935 45.8619 359.925 45.9348C359.916 46.0078 359.892 46.0783 359.856 46.1421C359.819 46.2059 359.77 46.2618 359.712 46.3067C359.624 46.373 359.518 46.4121 359.408 46.4192ZM172.231 50.6301C172.126 50.6375 172.021 50.6151 171.928 50.5653C171.836 50.5155 171.759 50.4404 171.708 50.3488C171.656 50.2572 171.631 50.1529 171.637 50.048C171.642 49.943 171.678 49.8418 171.738 49.756C172.786 48.2459 173.904 46.7437 175.032 45.286C175.077 45.2283 175.132 45.1799 175.196 45.1437C175.259 45.1074 175.329 45.084 175.401 45.0748C175.474 45.0655 175.547 45.0707 175.618 45.0898C175.688 45.109 175.754 45.1419 175.812 45.1866C175.87 45.2313 175.918 45.2869 175.955 45.3502C175.991 45.4136 176.014 45.4835 176.023 45.5559C176.033 45.6283 176.028 45.7019 176.008 45.7723C175.989 45.8428 175.956 45.9087 175.912 45.9665C174.796 47.4111 173.699 48.9002 172.649 50.3946C172.602 50.463 172.54 50.5197 172.467 50.5605C172.395 50.6013 172.314 50.6251 172.231 50.6301ZM350.734 36.4089C350.654 36.414 350.573 36.4016 350.497 36.3727C350.422 36.3438 350.354 36.299 350.297 36.2414C349.027 34.9328 347.708 33.6374 346.37 32.389C346.311 32.3405 346.263 32.2804 346.229 32.2126C346.194 32.1448 346.174 32.0706 346.169 31.9946C346.164 31.9187 346.175 31.8425 346.201 31.7709C346.227 31.6993 346.267 31.6338 346.319 31.5783C346.371 31.5228 346.434 31.4785 346.504 31.4483C346.574 31.418 346.649 31.4024 346.725 31.4023C346.801 31.4023 346.877 31.4178 346.947 31.448C347.017 31.4782 347.08 31.5223 347.132 31.5777C348.478 32.8366 349.808 34.1425 351.093 35.4641C351.196 35.5688 351.254 35.7098 351.254 35.8567C351.254 36.0035 351.196 36.1445 351.093 36.2492C350.997 36.3446 350.869 36.4014 350.734 36.4089ZM180.441 40.2246C180.368 40.2304 180.294 40.2211 180.224 40.1973C180.154 40.1734 180.09 40.1355 180.035 40.0859C179.98 40.0375 179.936 39.9788 179.904 39.9131C179.872 39.8474 179.853 39.7761 179.848 39.7031C179.844 39.6302 179.854 39.5571 179.878 39.488C179.902 39.419 179.939 39.3553 179.988 39.3008C181.208 37.9216 182.481 36.5528 183.764 35.2338C183.813 35.1743 183.875 35.1258 183.944 35.0914C184.013 35.057 184.089 35.0374 184.167 35.034C184.244 35.0305 184.321 35.0431 184.394 35.0711C184.466 35.0991 184.531 35.1419 184.586 35.1967C184.641 35.2514 184.684 35.317 184.712 35.3892C184.74 35.4614 184.752 35.5386 184.749 35.616C184.745 35.6933 184.726 35.7691 184.691 35.8385C184.657 35.9079 184.608 35.9693 184.549 36.0189C183.277 37.3275 182.02 38.6805 180.81 40.0466C180.715 40.1513 180.582 40.215 180.441 40.2246ZM340.976 27.4427C340.835 27.4522 340.696 27.4072 340.586 27.3171C339.175 26.163 337.706 25.0246 336.251 23.9359C336.192 23.8922 336.142 23.8374 336.105 23.7746C336.067 23.7118 336.042 23.6422 336.031 23.5698C336.021 23.4973 336.024 23.4235 336.042 23.3525C336.06 23.2815 336.092 23.2147 336.135 23.156C336.179 23.0972 336.234 23.0476 336.297 23.01C336.36 22.9724 336.429 22.9476 336.502 22.9369C336.574 22.9262 336.648 22.9298 336.719 22.9477C336.79 22.9655 336.857 22.9972 336.916 23.0408C338.395 24.14 339.869 25.2889 341.293 26.443C341.38 26.514 341.442 26.6092 341.474 26.7163C341.505 26.8234 341.504 26.9375 341.47 27.0438C341.436 27.1502 341.37 27.2438 341.283 27.3126C341.195 27.3814 341.088 27.4221 340.976 27.4297V27.4427ZM189.775 30.8214C189.659 30.8298 189.544 30.8017 189.445 30.7411C189.346 30.6805 189.268 30.5904 189.223 30.4836C189.178 30.3767 189.168 30.2584 189.194 30.1454C189.219 30.0323 189.28 29.9301 189.366 29.8531C190.736 28.6204 192.152 27.4087 193.579 26.2441C193.693 26.1508 193.84 26.1066 193.987 26.1213C194.133 26.136 194.268 26.2085 194.362 26.3226C194.455 26.4368 194.499 26.5834 194.485 26.7302C194.47 26.8769 194.398 27.0118 194.283 27.1051C192.872 28.2593 191.469 29.4605 190.113 30.6801C190.019 30.7635 189.9 30.8132 189.775 30.8214ZM330.26 19.636C330.141 19.6438 330.022 19.6126 329.923 19.547C328.388 18.5577 326.81 17.592 325.228 16.6682C325.162 16.633 325.104 16.5848 325.056 16.5265C325.009 16.4681 324.974 16.4009 324.954 16.3288C324.933 16.2567 324.928 16.1812 324.937 16.1068C324.946 16.0325 324.97 15.9607 325.008 15.8959C325.046 15.8311 325.096 15.7746 325.156 15.7297C325.216 15.6848 325.285 15.6525 325.358 15.6347C325.431 15.6169 325.506 15.6139 325.58 15.626C325.654 15.6381 325.725 15.665 325.788 15.7051C327.383 16.629 328.977 17.6051 330.525 18.6049C330.623 18.6684 330.698 18.761 330.74 18.8696C330.783 18.9782 330.79 19.0974 330.761 19.2104C330.732 19.3234 330.669 19.4244 330.579 19.4994C330.49 19.5743 330.379 19.6193 330.263 19.6281L330.26 19.636ZM200.114 22.5436C200.019 22.5506 199.924 22.5328 199.838 22.492C199.752 22.4511 199.679 22.3886 199.624 22.3106C199.581 22.2508 199.549 22.1828 199.532 22.1106C199.515 22.0385 199.513 21.9637 199.525 21.8906C199.537 21.8175 199.564 21.7476 199.603 21.6849C199.643 21.6222 199.695 21.568 199.755 21.5255C201.255 20.4604 202.8 19.4161 204.348 18.4243C204.41 18.3848 204.48 18.3579 204.552 18.3453C204.625 18.3326 204.7 18.3344 204.772 18.3506C204.844 18.3667 204.912 18.3969 204.972 18.4394C205.033 18.4819 205.084 18.5359 205.124 18.5983C205.163 18.6607 205.19 18.7302 205.203 18.803C205.215 18.8757 205.214 18.9503 205.198 19.0223C205.181 19.0944 205.151 19.1626 205.109 19.2229C205.066 19.2833 205.012 19.3348 204.95 19.3743C203.415 20.3583 201.886 21.392 200.402 22.4467C200.317 22.5054 200.217 22.539 200.114 22.5436ZM318.717 13.0959C318.619 13.1027 318.521 13.0828 318.434 13.0383C316.795 12.2296 315.117 11.4497 313.441 10.7196C313.372 10.6915 313.309 10.65 313.257 10.5973C313.204 10.5446 313.163 10.4819 313.134 10.4129C313.106 10.3439 313.093 10.27 313.094 10.1955C313.095 10.121 313.111 10.0475 313.14 9.9793C313.17 9.91108 313.214 9.84955 313.268 9.79834C313.322 9.74714 313.386 9.70729 313.455 9.68115C313.525 9.65501 313.6 9.64312 313.674 9.64617C313.748 9.64922 313.822 9.66715 313.889 9.69891C315.578 10.4343 317.274 11.2247 318.926 12.0412C319.032 12.0976 319.117 12.1865 319.168 12.2948C319.219 12.4031 319.234 12.525 319.211 12.6424C319.187 12.7599 319.127 12.8667 319.038 12.9469C318.949 13.0272 318.836 13.0767 318.717 13.088V13.0959ZM211.317 15.5036C211.19 15.5133 211.063 15.4789 210.958 15.4062C210.852 15.3335 210.775 15.2269 210.74 15.1043C210.704 14.9816 210.711 14.8504 210.76 14.7325C210.81 14.6146 210.898 14.5173 211.011 14.4568C212.626 13.5696 214.283 12.7059 215.938 11.8973C216.004 11.8601 216.077 11.8368 216.153 11.8289C216.228 11.8209 216.305 11.8284 216.377 11.851C216.45 11.8735 216.517 11.9106 216.574 11.96C216.632 12.0094 216.679 12.07 216.712 12.1381C216.746 12.2063 216.765 12.2805 216.768 12.3563C216.772 12.4321 216.76 12.5078 216.734 12.5788C216.707 12.6499 216.666 12.7147 216.613 12.7694C216.561 12.8241 216.498 12.8676 216.428 12.897C214.797 13.7004 213.155 14.5562 211.547 15.4486C211.478 15.4823 211.402 15.501 211.325 15.5036H211.317ZM306.506 7.91406C306.429 7.91894 306.353 7.90825 306.281 7.88266C304.56 7.26503 302.801 6.68142 301.044 6.14753C300.91 6.09908 300.799 6.00075 300.735 5.87289C300.671 5.74502 300.658 5.59741 300.7 5.46059C300.741 5.32377 300.834 5.20821 300.959 5.13781C301.083 5.06741 301.23 5.04757 301.369 5.08238C303.133 5.6215 304.909 6.21034 306.647 6.83582C306.769 6.87794 306.872 6.96096 306.939 7.07069C307.006 7.18042 307.033 7.31004 307.015 7.43739C306.997 7.56474 306.935 7.68191 306.841 7.76885C306.746 7.8558 306.624 7.90713 306.495 7.91406H306.506ZM223.274 9.79575C223.142 9.80456 223.011 9.76595 222.904 9.68685C222.798 9.60774 222.723 9.49332 222.694 9.36411C222.664 9.2349 222.681 9.09937 222.743 8.98183C222.804 8.86428 222.905 8.77243 223.028 8.72274C224.733 8.0266 226.479 7.35924 228.217 6.74423C228.352 6.70887 228.496 6.7255 228.619 6.79083C228.743 6.85615 228.837 6.96542 228.884 7.09701C228.931 7.2286 228.926 7.37293 228.872 7.50145C228.817 7.62998 228.716 7.73333 228.589 7.79106C226.866 8.40084 225.138 9.06035 223.45 9.75126C223.396 9.77154 223.339 9.78388 223.282 9.7879L223.274 9.79575ZM293.784 4.14808C293.73 4.15142 293.675 4.14702 293.622 4.13499C291.839 3.71888 290.024 3.34987 288.226 3.00965C288.08 2.98292 287.951 2.89953 287.867 2.77781C287.783 2.6561 287.751 2.50602 287.778 2.36061C287.805 2.2152 287.888 2.08636 288.01 2.00243C288.132 1.9185 288.282 1.88637 288.427 1.91309C290.242 2.24808 292.074 2.63017 293.876 3.0489C294.006 3.07931 294.121 3.15556 294.2 3.26371C294.279 3.37187 294.316 3.50473 294.305 3.63804C294.294 3.77135 294.235 3.89622 294.139 3.98986C294.044 4.08349 293.918 4.13965 293.784 4.14808ZM235.818 5.48017C235.682 5.48698 235.548 5.4436 235.441 5.35824C235.335 5.27288 235.263 5.15147 235.24 5.017C235.217 4.88252 235.245 4.74432 235.317 4.62856C235.389 4.5128 235.501 4.42751 235.632 4.38885C237.404 3.8916 239.214 3.42838 241.012 3.01488C241.156 2.98018 241.308 3.00411 241.435 3.08141C241.561 3.15871 241.652 3.28305 241.686 3.42707C241.721 3.5711 241.697 3.72301 241.62 3.84939C241.543 3.97577 241.418 4.06627 241.274 4.10097C239.494 4.50924 237.703 4.96723 235.946 5.46186C235.904 5.47292 235.861 5.47907 235.818 5.48017ZM280.712 1.87645C280.679 1.88038 280.645 1.88038 280.612 1.87645C278.798 1.66708 276.947 1.50221 275.135 1.3792C274.989 1.36681 274.854 1.29785 274.759 1.18714C274.664 1.07643 274.616 0.932802 274.626 0.787131C274.635 0.64146 274.702 0.505367 274.811 0.408098C274.92 0.310828 275.062 0.260146 275.208 0.266943C277.041 0.389946 278.908 0.560056 280.738 0.769423C280.876 0.785708 281.002 0.852818 281.093 0.957628C281.184 1.06244 281.233 1.19741 281.23 1.33615C281.227 1.4749 281.172 1.60743 281.076 1.70783C280.98 1.80824 280.85 1.8693 280.712 1.87907V1.87645ZM248.762 2.62494C248.619 2.63462 248.477 2.58859 248.367 2.49643C248.257 2.40428 248.186 2.27312 248.17 2.13032C248.154 1.98753 248.194 1.84412 248.282 1.73001C248.369 1.61591 248.497 1.53992 248.639 1.51791C249.773 1.33471 250.927 1.16722 252.069 1.01543C252.757 0.926448 253.454 0.840084 254.14 0.75372C254.284 0.741118 254.428 0.78538 254.541 0.8771C254.653 0.96882 254.725 1.10077 254.742 1.24491C254.759 1.38905 254.719 1.53402 254.63 1.64901C254.542 1.76401 254.412 1.83997 254.268 1.86075C253.587 1.93664 252.896 2.02301 252.215 2.12246C251.084 2.27163 249.94 2.43912 248.812 2.62232L248.762 2.62494ZM267.477 1.11488H267.44C265.607 1.11488 263.775 1.15937 261.942 1.24573C261.798 1.24825 261.658 1.19489 261.553 1.09684C261.447 0.998785 261.384 0.863663 261.375 0.719807C261.367 0.575951 261.415 0.434538 261.509 0.325224C261.603 0.21591 261.736 0.147189 261.879 0.133471C263.712 0.0444904 265.589 0 267.43 0C267.572 0.00386091 267.707 0.0617817 267.808 0.161934C267.908 0.262085 267.967 0.396913 267.972 0.53888C267.976 0.680848 267.927 0.819246 267.833 0.92581C267.739 1.03237 267.608 1.09906 267.466 1.11226L267.477 1.11488Z" fill="#DEDEDE"/>
<path d="M285.78 69.2585V260.866H285.278L270.765 246.749L256.253 260.866H254.739L240.227 246.749L225.712 260.866H224.222L209.733 246.775L195.247 260.866H193.762L179.26 246.76L164.756 260.866H163.227L148.722 246.76L134.217 260.866H132.707L118.231 246.786L103.755 260.866H102.797V16.0061H232.506L285.78 69.2585Z" fill="#F2F2F2"/>
<path d="M285.78 69.2585H232.506V16.0061L285.78 69.2585Z" fill="#DEDEDE"/>
<path d="M152.039 168.938V161.772H132.694C130.25 161.772 128.417 161.22 127.195 160.116C125.974 159.011 125.363 157.509 125.363 155.609C125.363 155.103 125.451 154.601 125.625 154.125C125.832 153.572 126.104 153.045 126.434 152.555C126.792 152.003 127.167 151.472 127.552 150.956C127.936 150.44 128.413 149.815 128.978 149.069L149.4 121.755C150.737 119.956 151.836 118.653 152.696 117.845C153.53 117.046 154.645 116.61 155.799 116.63C159.705 116.63 161.658 118.865 161.658 123.335V153.141H163.316C165.291 153.141 166.878 153.412 168.075 153.953C169.273 154.493 169.87 155.675 169.866 157.496C169.866 158.986 169.378 160.071 168.403 160.752C167.427 161.432 165.963 161.772 164.009 161.772H161.653V168.938C161.653 170.917 161.217 172.386 160.344 173.348C159.471 174.309 158.303 174.791 156.838 174.792C156.184 174.816 155.531 174.696 154.928 174.44C154.325 174.184 153.786 173.799 153.348 173.311C152.477 172.322 152.041 170.864 152.039 168.938ZM135.469 153.141H152.039V130.76L135.469 153.141Z" fill="black"/>
<path d="M214.477 146.13C214.477 150.344 214.215 153.966 213.692 156.996C213.227 159.889 212.262 162.678 210.841 165.24C209.095 168.271 206.834 170.608 204.057 172.251C201.026 173.998 197.56 174.846 194.064 174.696C190.569 174.545 187.189 173.403 184.319 171.403C181.22 169.195 178.888 166.141 177.323 162.244C176.487 159.957 175.899 157.589 175.569 155.177C175.184 152.403 174.997 149.604 175.011 146.803C174.988 143.304 175.194 139.807 175.626 136.334C175.948 133.596 176.595 130.906 177.553 128.321C179.07 124.624 181.274 121.805 184.164 119.865C187.055 117.925 190.504 116.955 194.511 116.955C196.974 116.922 199.42 117.36 201.719 118.245C203.857 119.093 205.793 120.379 207.403 122.022C209.125 123.808 210.527 125.878 211.547 128.14C213.501 132.378 214.477 138.375 214.477 146.13ZM203.916 145.361C203.916 140.66 203.633 136.814 203.067 133.822C202.502 130.83 201.551 128.57 200.216 127.041C198.881 125.514 197.031 124.75 194.666 124.749C191.276 124.749 188.92 126.457 187.597 129.873C186.273 133.289 185.612 138.555 185.612 145.67C185.612 150.497 185.895 154.452 186.46 157.535C187.026 160.618 187.976 162.948 189.311 164.526C190.647 166.106 192.458 166.897 194.747 166.897C197.11 166.897 198.96 166.075 200.297 164.431C201.634 162.788 202.572 160.438 203.109 157.381C203.647 154.324 203.916 150.317 203.916 145.361Z" fill="black"/>
<path d="M245.845 168.938V161.772H226.497C224.054 161.772 222.221 161.22 220.999 160.116C219.777 159.011 219.166 157.509 219.166 155.609C219.166 155.103 219.255 154.601 219.428 154.125C219.635 153.572 219.906 153.045 220.237 152.555C220.596 152.003 220.968 151.472 221.355 150.956C221.743 150.44 222.214 149.815 222.779 149.069L243.201 121.755C244.536 119.956 245.635 118.653 246.497 117.845C247.33 117.046 248.446 116.609 249.6 116.63C253.504 116.63 255.457 118.865 255.457 123.335V153.141H257.114C259.093 153.141 260.68 153.412 261.874 153.953C263.068 154.493 263.666 155.675 263.667 157.496C263.667 158.986 263.179 160.071 262.201 160.752C261.224 161.432 259.759 161.772 257.808 161.772H255.451V168.938C255.451 170.917 255.015 172.386 254.142 173.348C253.27 174.309 252.1 174.791 250.634 174.792C249.98 174.816 249.328 174.696 248.725 174.44C248.123 174.184 247.584 173.799 247.147 173.311C246.279 172.322 245.845 170.864 245.845 168.938ZM229.272 153.141H245.845V130.76L229.272 153.141Z" fill="black"/>
<path d="M192.864 317.109C192.265 317.709 191.554 318.184 190.771 318.509C189.988 318.833 189.148 319 188.301 319C187.453 319 186.614 318.833 185.831 318.509C185.048 318.184 184.336 317.709 183.737 317.109L144.551 277.942L139.577 272.97C143.208 270.574 146.316 267.467 148.712 263.836L192.877 307.986C193.476 308.586 193.951 309.298 194.274 310.081C194.597 310.864 194.763 311.703 194.762 312.551C194.761 313.398 194.593 314.237 194.267 315.019C193.941 315.801 193.465 316.512 192.864 317.109Z" fill="#9C9C9C"/>
<path d="M150.683 265.82L160.894 276.027C158.501 279.653 155.397 282.757 151.77 285.15L141.559 274.943C145.186 272.55 148.29 269.446 150.683 265.82Z" fill="#5E5E5E"/>
<path d="M160.86 244.564C160.639 239.282 159.341 234.101 157.045 229.34C154.749 224.578 151.503 220.335 147.507 216.873C141.871 211.976 134.944 208.803 127.554 207.732C120.163 206.661 112.62 207.738 105.825 210.834C99.0297 213.929 93.2685 218.913 89.2285 225.192C85.1886 231.47 83.0404 238.777 83.0401 246.241C83.04 247.711 83.1221 249.18 83.2862 250.641C83.7832 255.071 85.0437 259.381 87.0118 263.381C89.7751 268.995 93.8482 273.864 98.8878 277.576C99.703 278.178 100.541 278.747 101.401 279.285C107.925 283.338 115.502 285.374 123.179 285.135C130.857 284.896 138.292 282.393 144.551 277.942C148.08 275.427 151.167 272.343 153.686 268.816C158.393 262.231 160.916 254.337 160.902 246.244C160.896 245.681 160.882 245.12 160.86 244.564ZM121.967 278.23C117.764 278.23 113.603 277.403 109.72 275.795C105.838 274.188 102.31 271.831 99.3382 268.861C96.3666 265.89 94.0094 262.364 92.4011 258.483C90.7929 254.602 89.9651 250.442 89.9651 246.241C89.9651 242.041 90.7929 237.881 92.4011 234C94.0094 230.119 96.3666 226.592 99.3382 223.622C102.31 220.652 105.838 218.295 109.72 216.688C113.603 215.08 117.764 214.253 121.967 214.253C123.363 214.25 124.758 214.337 126.143 214.515C133.841 215.528 140.909 219.304 146.028 225.14C151.148 230.975 153.971 238.472 153.971 246.234C153.971 246.72 153.958 247.205 153.937 247.686C153.684 253.274 151.969 258.698 148.965 263.417C145.96 268.136 141.769 271.984 136.812 274.579C134.765 275.653 132.607 276.5 130.377 277.105C127.636 277.851 124.808 278.229 121.967 278.23Z" fill="#B8B8B8"/>
<path d="M97.7332 249.759C96.9409 249.759 96.1811 249.444 95.6209 248.884C95.0606 248.324 94.7459 247.565 94.7459 246.773C94.7459 239.415 97.6698 232.359 102.874 227.157C108.079 221.954 115.138 219.032 122.498 219.032C123.276 219.055 124.014 219.379 124.555 219.937C125.097 220.495 125.4 221.242 125.4 222.019C125.4 222.796 125.097 223.543 124.555 224.101C124.014 224.659 123.276 224.983 122.498 225.006C116.723 225.006 111.185 227.3 107.101 231.382C103.017 235.464 100.723 241 100.723 246.773C100.723 247.165 100.646 247.554 100.496 247.916C100.345 248.279 100.125 248.608 99.8473 248.885C99.5696 249.162 99.24 249.382 98.8772 249.532C98.5145 249.682 98.1258 249.759 97.7332 249.759Z" fill="white"/>
</svg>
