<svg xmlns="http://www.w3.org/2000/svg" fill="none" viewBox="0 0 48 50" height="50" width="48">
<g id="Vector">
<path fill="black" d="M46.3455 34.945C33.9107 37.3044 21.8585 29.2058 19.4991 16.771C19.244 15.3044 19.0527 13.8377 19.1164 12.371C19.1164 8.60871 20.0092 4.97392 21.7947 1.65797C22.1136 1.08406 21.8585 0.446378 21.3483 0.127537C21.157 4.84612e-07 20.8382 0 20.6469 0C6.87296 2.6145 -2.11836 15.7507 0.432366 29.4609C2.98309 43.1711 16.1831 52.1624 29.8933 49.5479C37.4817 48.145 43.9223 43.2986 47.5571 36.5392C47.8759 35.9653 47.6208 35.3276 47.1107 35.0087C46.8556 34.8812 46.6006 34.8812 46.3455 34.945ZM25.2382 47.7624C12.5483 47.7624 2.28164 37.4957 2.21788 24.8058C2.21788 14.6029 8.91354 5.6116 18.7338 2.74203C13.4411 15.6232 19.5628 30.3537 32.3802 35.6464C35.4411 36.9218 38.6933 37.5595 42.0092 37.5595C42.7745 37.5595 43.5397 37.4957 44.3687 37.4319C40.16 43.8725 32.9542 47.7624 25.2382 47.7624ZM46.7281 8.35364H41.9455C41.4991 8.35364 41.1165 8.09856 40.9252 7.71595C40.7339 7.33335 40.7976 6.8232 41.1165 6.50436L44.3049 2.93334H42.0092C41.3716 2.93334 40.8614 2.42319 40.8614 1.78551C40.8614 1.14783 41.3716 0.637682 42.0092 0.637682H46.7919C47.2382 0.637682 47.6208 0.892755 47.8121 1.27536C48.0034 1.65797 47.9397 2.16812 47.6208 2.48696L44.4324 6.05798H46.7281C47.3658 6.05798 47.8759 6.56812 47.8759 7.20581C47.8759 7.84349 47.3658 8.35364 46.7281 8.35364Z"></path>
<path fill="black" d="M37.4179 23.2116H30.2121C29.7657 23.2116 29.3831 22.9566 29.1918 22.5739C29.0005 22.1913 29.0643 21.6812 29.3831 21.3624L34.931 14.9855H30.2121C29.5744 14.9855 29.0643 14.4754 29.0643 13.8377C29.0643 13.2 29.5744 12.6899 30.2121 12.6899H37.4179C37.8643 12.6899 38.2469 12.9449 38.4382 13.3276C38.6295 13.7102 38.5658 14.2203 38.2469 14.5392L32.6991 20.916H37.4179C38.0556 20.916 38.5658 21.4261 38.5658 22.0638C38.5658 22.7015 38.0556 23.2116 37.4179 23.2116Z"></path>
</g>
</svg>
