<svg xmlns="http://www.w3.org/2000/svg" fill="none" viewBox="0 0 50 50" height="50" width="50">
<g id="Vector">
<path fill="black" d="M19.6492 43.2561C19.825 43.3377 20.0237 43.3555 20.2111 43.3064C20.3986 43.2573 20.5631 43.1444 20.6763 42.9871L35.6763 22.1538C35.7659 22.0293 35.8194 21.8825 35.8309 21.7296C35.8425 21.5766 35.8116 21.4235 35.7416 21.2869C35.6717 21.1504 35.5655 21.0358 35.4346 20.9558C35.3038 20.8758 35.1534 20.8334 35 20.8334H27.5334L30.8085 7.70186C30.8555 7.51388 30.8355 7.31539 30.7519 7.14057C30.6684 6.96575 30.5265 6.82553 30.3507 6.74404C29.9861 6.57637 29.5564 6.68828 29.3236 7.01299L14.3236 27.8463C14.234 27.9708 14.1805 28.1176 14.169 28.2705C14.1574 28.4235 14.1883 28.5766 14.2583 28.7132C14.3282 28.8497 14.4344 28.9643 14.5653 29.0443C14.6961 29.1243 14.8465 29.1667 14.9999 29.1667H22.4665L19.1913 42.2982C19.1444 42.4862 19.1645 42.6847 19.248 42.8595C19.3316 43.0343 19.4735 43.1745 19.6492 43.2561ZM24.3421 28.5352C24.3727 28.4123 24.375 28.2841 24.3487 28.1603C24.3224 28.0364 24.2682 27.9202 24.1903 27.8204C24.1124 27.7206 24.0127 27.6399 23.8989 27.5844C23.7851 27.5289 23.6602 27.5 23.5336 27.5H16.6269L28.1417 11.5071L25.6579 21.4648C25.6273 21.5877 25.625 21.7159 25.6513 21.8397C25.6776 21.9636 25.7318 22.0798 25.8097 22.1796C25.8876 22.2794 25.9873 22.3601 26.1011 22.4156C26.2149 22.4711 26.3398 22.5 26.4664 22.5H33.3731L21.8583 38.4929L24.3421 28.5352Z"></path>
<path fill="black" d="M49.1667 24.1667C49.0573 24.1667 48.9489 24.1883 48.8478 24.2301C48.7467 24.272 48.6548 24.3334 48.5775 24.4108C48.5001 24.4881 48.4387 24.58 48.3968 24.6811C48.3549 24.7822 48.3334 24.8906 48.3334 25C48.3334 37.8662 37.8663 48.3333 25.0001 48.3333C18.1107 48.3333 11.5563 45.2433 7.14199 40H11.6667C11.8877 40 12.0997 39.9122 12.2559 39.7559C12.4122 39.5997 12.5 39.3877 12.5 39.1667C12.5 38.9457 12.4122 38.7337 12.2559 38.5775C12.0997 38.4212 11.8877 38.3334 11.6667 38.3334H5C4.779 38.3334 4.56704 38.4212 4.41077 38.5775C4.25449 38.7337 4.1667 38.9457 4.1667 39.1667V45.8334C4.1667 46.0544 4.25449 46.2664 4.41077 46.4226C4.56704 46.5789 4.779 46.6667 5 46.6667C5.221 46.6667 5.43296 46.5789 5.58923 46.4226C5.74551 46.2664 5.8333 46.0544 5.8333 45.8334V41.034C10.5626 46.6748 17.6011 50 25 50C38.785 50 50 38.785 50 25C50 24.779 49.9122 24.567 49.7559 24.4108C49.5997 24.2545 49.3877 24.1667 49.1667 24.1667ZM25 1.6667C31.8894 1.6667 38.4438 4.75674 42.8581 10H38.3334C38.1124 10 37.9004 10.0878 37.7442 10.2441C37.5879 10.4003 37.5001 10.6123 37.5001 10.8333C37.5001 11.0543 37.5879 11.2663 37.7442 11.4225C37.9004 11.5788 38.1124 11.6666 38.3334 11.6666H45C45.1094 11.6666 45.2178 11.645 45.3189 11.6032C45.42 11.5613 45.5119 11.4999 45.5892 11.4225C45.6666 11.3452 45.728 11.2533 45.7699 11.1522C45.8117 11.0511 45.8333 10.9427 45.8333 10.8333V4.1667C45.8333 3.94569 45.7455 3.73374 45.5892 3.57747C45.433 3.42119 45.221 3.3334 45 3.3334C44.779 3.3334 44.567 3.42119 44.4108 3.57747C44.2545 3.73374 44.1667 3.94569 44.1667 4.1667V8.96611C39.4374 3.3252 32.3989 0 25 0C11.215 0 0 11.215 0 25C0 25.221 0.0877939 25.433 0.244068 25.5892C0.400342 25.7455 0.612296 25.8333 0.833301 25.8333C1.05431 25.8333 1.26626 25.7455 1.42253 25.5892C1.57881 25.433 1.6666 25.221 1.6666 25C1.6667 12.1338 12.1338 1.6667 25 1.6667Z"></path>
</g>
</svg>
