<svg xmlns="http://www.w3.org/2000/svg" fill="none" viewBox="0 0 43 50" height="50" width="43">
<g id="Vector">
<path fill="black" d="M24.1006 0C11.1675 0 5.35056 11.4866 5.35056 19.6429V31.25C5.35056 32.4321 7.13627 32.4313 7.13627 31.25V19.6429C7.13627 12.2277 12.3997 1.78571 24.1006 1.78571C35.8015 1.78571 41.0648 12.2277 41.0648 19.6429V38.3929C41.0648 39.575 42.8506 39.5741 42.8506 38.3929V19.6429C42.8506 11.4866 37.0327 0 24.1006 0ZM5.35056 41.0714V46.4286C5.35056 47.6107 7.13627 47.6098 7.13627 46.4286V41.0714C7.13627 39.8893 5.35056 39.8902 5.35056 41.0714Z"></path>
<path fill="black" d="M27.0765 32.2964C26.2579 33.0275 25.2004 33.4343 24.1029 33.44C23.0054 33.4458 21.9437 33.0502 21.1175 32.3277C20.23 31.55 19.0514 32.8902 19.9407 33.6705C21.0951 34.6803 22.5788 35.2333 24.1124 35.2252C25.6461 35.2172 27.1239 34.6487 28.2675 33.6268C29.147 32.8393 27.9577 31.5071 27.0765 32.2964Z"></path>
<path fill="black" d="M41.9577 48.2143C33.78 48.2143 31.4166 41.9554 31.2613 38.3214C34.5479 35.4893 36.2514 31.2098 36.5515 29.1545C37.6666 28.5536 40.172 26.8045 40.172 23.2143C40.172 21.0348 38.9077 20.0161 37.4934 19.7304V15.4062C37.499 13.559 36.8966 11.7611 35.7791 10.2902C32.9425 6.53661 28.4925 4.46429 24.1006 4.46429C15.5282 4.46429 10.7077 10.6589 10.7077 15.4062V19.7304C9.29342 20.0161 8.02913 21.0348 8.02913 23.2143C8.02913 26.8045 10.5336 28.5536 11.6497 29.1545C11.9506 31.2089 13.6541 35.4893 16.9398 38.3205C16.7854 41.9554 14.422 48.2143 6.24342 48.2143C5.06217 48.2143 5.06127 50 6.24342 50C14.9666 50 18.022 43.8562 18.6211 39.542C20.1738 40.475 21.9943 41.0714 24.1006 41.0714C26.2068 41.0714 28.0273 40.475 29.58 39.542C30.1791 43.8562 33.2354 50 41.9577 50C43.1398 50 43.139 48.2143 41.9577 48.2143ZM35.6425 14.5875C33.6675 12.6929 31.2916 11.2937 28.7434 10.5196C29.4006 9.64286 29.6648 8.56518 29.3916 7.42321C32.1032 8.65714 35.2354 11.2304 35.6425 14.5875ZM26.5756 6.51429C26.9129 6.66646 27.1995 6.91229 27.4012 7.22255C27.603 7.53281 27.7114 7.89447 27.7137 8.26455C27.716 8.63464 27.6119 8.99759 27.414 9.31029C27.216 9.62299 26.9325 9.87229 26.597 10.0286C21.3881 9.18929 16.2523 11.0429 12.5586 14.5875C12.6935 13.4185 13.138 12.3068 13.8461 11.367C17.1238 7.03125 21.4756 5.49554 26.5756 6.51429ZM13.3863 28.5714C13.3863 28.2036 13.1613 27.8741 12.8184 27.7393C12.7881 27.7286 9.81484 26.5286 9.81484 23.2143C9.81484 22.7723 9.81484 21.4286 11.6006 21.4286C11.8374 21.4286 12.0645 21.3345 12.2319 21.1671C12.3993 20.9996 12.4934 20.7725 12.4934 20.5357V17.2857C18.6443 9.73482 29.5541 9.73214 35.7077 17.2857V20.5357C35.7077 20.7725 35.8018 20.9996 35.9692 21.1671C36.1367 21.3345 36.3638 21.4286 36.6006 21.4286C38.3863 21.4286 38.3863 22.7723 38.3863 23.2143C38.3863 26.4955 35.5023 27.692 35.3827 27.7393C35.0407 27.8741 34.8148 28.2036 34.8148 28.5714C34.8148 30.692 31.3693 39.2857 24.1006 39.2857C16.8318 39.2857 13.3863 30.692 13.3863 28.5714Z"></path>
<path fill="black" d="M33.7327 24.1732C34.4604 23.2402 33.0488 22.142 32.3256 23.075C31.3568 24.317 29.5041 24.5205 28.3622 23.1312C27.6139 22.2179 26.2327 23.3527 26.9827 24.2652C28.7738 26.4446 31.9952 26.4027 33.7327 24.1732ZM21.2184 24.2643C21.9693 23.3509 20.5872 22.2188 19.8389 23.1304C18.772 24.4277 16.9095 24.4 15.8756 23.0741C15.1515 22.1455 13.7398 23.2384 14.4675 24.1723C16.2104 26.4062 19.4309 26.4411 21.2184 24.2643ZM28.2898 19.5429C29.0657 18.7973 30.7345 18.7491 32.7497 19.4125C33.8711 19.7795 34.43 18.0848 33.3077 17.7161C29.6148 16.5036 27.8059 17.5339 27.0532 18.2554C26.1889 19.0857 27.4532 20.3482 28.2898 19.5429ZM15.4506 19.4125C17.4666 18.7491 19.1336 18.7973 19.9113 19.5429C20.7488 20.3473 22.0122 19.0848 21.1479 18.2545C20.3952 17.5321 18.5827 16.5036 14.8943 17.7152C13.7711 18.0839 14.3282 19.7795 15.4506 19.4125ZM9.81484 35.7143V36.6071C9.81484 37.7893 11.6006 37.7884 11.6006 36.6071V35.7143C11.6006 34.5321 9.81484 34.533 9.81484 35.7143ZM9.81484 41.0714C9.81484 42.2536 11.6006 42.2527 11.6006 41.0714V40.1786C11.6006 38.9964 9.81484 38.9973 9.81484 40.1786V41.0714ZM12.4934 39.2857H13.3863C14.5675 39.2857 14.5684 37.5 13.3863 37.5H12.4934C11.3122 37.5 11.3113 39.2857 12.4934 39.2857ZM8.92199 37.5H8.02913C6.84788 37.5 6.84699 39.2857 8.02913 39.2857H8.92199C10.1032 39.2857 10.1041 37.5 8.92199 37.5ZM3.56484 33.9286C3.80164 33.9286 4.02875 33.8345 4.19619 33.6671C4.36363 33.4996 4.4577 33.2725 4.4577 33.0357V32.1429C4.4577 30.9607 2.67199 30.9616 2.67199 32.1429V33.0357C2.67199 33.2725 2.76606 33.4996 2.9335 33.6671C3.10094 33.8345 3.32804 33.9286 3.56484 33.9286ZM3.56484 35.7143C3.32804 35.7143 3.10094 35.8084 2.9335 35.9758C2.76606 36.1432 2.67199 36.3703 2.67199 36.6071V37.5C2.67199 38.6821 4.4577 38.6812 4.4577 37.5V36.6071C4.4577 36.3703 4.36363 36.1432 4.19619 35.9758C4.02875 35.8084 3.80164 35.7143 3.56484 35.7143ZM6.24342 35.7143C7.42467 35.7143 7.42556 33.9286 6.24342 33.9286H5.35056C5.11376 33.9286 4.88666 34.0226 4.71921 34.1901C4.55177 34.3575 4.4577 34.5846 4.4577 34.8214C4.4577 35.0582 4.55177 35.2853 4.71921 35.4528C4.88666 35.6202 5.11376 35.7143 5.35056 35.7143H6.24342ZM1.77913 33.9286H0.886272C-0.294978 33.9286 -0.295871 35.7143 0.886272 35.7143H1.77913C2.01593 35.7143 2.24303 35.6202 2.41047 35.4528C2.57792 35.2853 2.67199 35.0582 2.67199 34.8214C2.67199 34.5846 2.57792 34.3575 2.41047 34.1901C2.24303 34.0226 2.01593 33.9286 1.77913 33.9286ZM38.3863 39.2857C38.3863 39.0489 38.2922 38.8218 38.1248 38.6544C37.9573 38.4869 37.7302 38.3929 37.4934 38.3929C37.2566 38.3929 37.0295 38.4869 36.8621 38.6544C36.6946 38.8218 36.6006 39.0489 36.6006 39.2857V40.1786C36.6006 41.3607 38.3863 41.3598 38.3863 40.1786V39.2857ZM38.3863 44.6429V43.75C38.3863 42.5679 36.6006 42.5687 36.6006 43.75V44.6429C36.6006 45.825 38.3863 45.8241 38.3863 44.6429ZM39.2791 42.8571H40.172C41.3541 42.8571 41.3532 41.0714 40.172 41.0714H39.2791C38.097 41.0714 38.0979 42.8571 39.2791 42.8571ZM35.7077 41.0714H34.8148C33.6327 41.0714 33.6336 42.8571 34.8148 42.8571H35.7077C36.8898 42.8571 36.889 41.0714 35.7077 41.0714Z"></path>
</g>
</svg>
