<svg xmlns="http://www.w3.org/2000/svg" fill="none" viewBox="0 0 58 51" height="51" width="58">
<path fill="black" d="M0.903491 48.6077H7.94676C9.76103 48.6077 11.2558 47.2681 11.5258 45.5284C12.9185 45.59 14.5995 45.301 16.988 46.0976L27.6113 49.6393C29.679 50.3271 32.0244 50.1803 34.044 49.1354L55.5465 37.8849C57.4302 37.0988 58.3241 34.9264 57.5388 33.0427C57.3515 32.5921 57.0768 32.1831 56.7306 31.8392C56.3845 31.4953 55.9737 31.2233 55.522 31.0388C55.0702 30.8543 54.5864 30.7611 54.0985 30.7645C53.6105 30.7678 53.1281 30.8677 52.6789 31.0583L40.1634 36.5984C40.3386 34.4901 38.6988 32.8945 36.8047 32.8445C36.7995 32.8444 36.7951 32.8415 36.7899 32.8415H36.7751C36.7543 32.8411 36.7349 32.8353 36.714 32.8353C36.7031 32.8353 36.6942 32.8411 36.6834 32.8415H27.8907L21.17 29.7047C19.7428 29.0395 18.1564 28.6874 16.5827 28.6874H11.526C11.2564 26.9472 9.7615 25.6072 7.94687 25.6072H0.903491C0.784834 25.6071 0.667334 25.6305 0.557704 25.6759C0.448073 25.7213 0.348461 25.7878 0.264558 25.8717C0.180656 25.9556 0.114106 26.0552 0.0687122 26.1649C0.0233183 26.2745 -3.03912e-05 26.392 2.96885e-08 26.5107V47.7043C-3.03912e-05 47.8229 0.0233183 47.9404 0.0687122 48.05C0.114106 48.1597 0.180656 48.2593 0.264558 48.3432C0.348461 48.4271 0.448073 48.4936 0.557704 48.539C0.667334 48.5844 0.784834 48.6078 0.903491 48.6077ZM20.4058 31.3423C27.6637 34.6971 27.3154 34.6484 27.6903 34.6484H36.775C37.6677 34.6814 38.385 35.4131 38.385 36.3134C38.385 37.2346 37.6355 37.9846 36.7139 37.9846H25.9097C25.7911 37.9845 25.6736 38.0079 25.5639 38.0533C25.4543 38.0987 25.3547 38.1652 25.2708 38.2491C25.1869 38.333 25.1203 38.4326 25.0749 38.5423C25.0295 38.6519 25.0062 38.7694 25.0062 38.888C25.0062 39.0067 25.0295 39.1242 25.0749 39.2338C25.1203 39.3435 25.1868 39.4431 25.2707 39.527C25.3547 39.6109 25.4543 39.6775 25.5639 39.7229C25.6735 39.7682 25.791 39.7916 25.9097 39.7915H36.7898C37.3251 39.7915 37.8753 39.5857 38.367 39.3688L53.3922 32.7178C54.3575 32.3163 55.4688 32.7726 55.8711 33.7378C56.273 34.7022 55.8151 35.8147 54.7797 36.2506L33.2102 47.5321C31.6648 48.3323 29.8327 48.4726 28.1827 47.9247L17.5598 44.3839C14.8351 43.4747 12.8686 43.7829 11.582 43.7212V30.4944H16.5826C17.9034 30.4963 19.208 30.7856 20.4058 31.3423ZM1.80698 27.4142H7.94664C8.95468 27.4142 9.77481 28.2338 9.77481 29.2423V44.9725C9.77481 45.981 8.95468 46.8006 7.94664 46.8006H1.80698V27.4142Z"></path>
<path fill="black" d="M33.2891 29.2547C33.4443 29.3632 33.6253 29.417 33.8061 29.417C33.9869 29.417 34.1679 29.3623 34.3236 29.2547C34.9703 28.802 50.1685 18.0897 50.1685 9.47458C50.1685 4.2838 45.9448 0.0600586 40.7536 0.0600586C38.0868 0.0600586 35.5655 1.19301 33.8034 3.13765C32.0321 1.19301 29.5073 0.0600586 26.8458 0.0600586C21.6543 0.0600586 17.4305 4.2838 17.4305 9.47458C17.4305 18.0897 32.6414 28.803 33.2891 29.2547ZM26.8458 1.86716C29.3173 1.86716 31.6431 3.07686 33.0668 5.10266C33.1502 5.22128 33.2609 5.31808 33.3896 5.38488C33.5183 5.45168 33.6612 5.48651 33.8062 5.48644H33.808C33.9533 5.48619 34.0964 5.45084 34.2252 5.38339C34.3539 5.31595 34.4645 5.21841 34.5474 5.09907C35.9577 3.07594 38.2778 1.86716 40.7536 1.86716C44.9487 1.86716 48.3615 5.28002 48.3615 9.47458C48.3615 16.332 36.4553 25.4545 33.8056 27.3992C31.1542 25.4554 19.2375 16.3375 19.2375 9.47458C19.2375 5.2799 22.6508 1.86716 26.8458 1.86716Z"></path>
</svg>
