<svg width="1886" height="72" viewBox="0 0 1886 72" fill="none" xmlns="http://www.w3.org/2000/svg">
<path d="M1854.99 32.7303C1867.65 39.7916 1883.87 62.3044 1886 72.0002L-31.5112 71.8937C-52.5686 66.8373 66.8291 41.4624 70.1357 40.7284C92.9083 35.6727 148.163 28.1128 162.02 14.8032C165.049 11.8936 180.802 2.66801 188.15 2.66801C194.696 2.66801 203.893 12.1172 207.388 14.8032C220.985 25.2513 283.621 11.7617 304.154 18.6644C344.089 32.0899 362.6 51.5284 418.148 45.6928C435.55 43.8646 463.787 34.1566 482.467 37.4188C495.695 39.729 505.612 46.2765 520.369 49.0024C542.978 53.1785 550.786 59.8508 578.371 59.4828C595.18 59.2586 614.084 45.4561 624.6 39.4873C638.059 31.8487 639.268 26.8267 658.77 32.1786C677.954 37.4434 712.756 35.2607 732.852 33.5576C745.483 32.4871 785.866 21.7813 797.458 26.111C803.236 28.2692 806.64 30.2244 813.537 32.3165C835.486 38.974 871.397 39.3579 895.946 34.9366C913.224 31.825 953.666 27.9009 965.721 21.1467C971.164 18.097 970.779 13.7722 976.345 10.9421C984.089 7.00428 987.561 6.42391 995.009 7.21877C1008.77 8.68743 1011.29 12.7418 1022.86 16.1823C1056.94 26.3136 1087.71 40.5566 1126.52 46.5203C1148.98 49.9722 1159.92 37.3056 1175.04 32.1787C1206.16 21.6307 1228.92 16.3226 1265.78 24.7321C1297.73 32.0193 1335.13 49.5541 1371.73 49.5541C1385.55 49.5541 1393.96 40.5754 1401.31 36.0399C1417.38 26.1198 1433 17.2855 1459.89 17.2855C1498.36 17.2855 1510.2 24.0142 1540.29 34.523C1554.58 39.5153 1582.86 50.0872 1601.73 49.5541C1617.4 49.1115 1622.97 30.1412 1633.89 25.2837C1649.26 18.4479 1676.61 24.3934 1689.88 29.9723C1702.22 35.1581 1724.43 52.1297 1743.29 43.0728C1754.48 37.7019 1760.71 20.1672 1767.12 12.8727C1781.62 -3.61803 1785.96 -2.45742 1809.05 6.25354C1827.58 13.2454 1839.63 24.1618 1854.99 32.7303Z" fill="#FFFAF3"/>
</svg>
