<svg width="1920" height="43" viewBox="0 0 1920 43" fill="none" xmlns="http://www.w3.org/2000/svg">
<path d="M13.6675 29.9468C9.77885 23.038 7.93649 22.2794 -1 23.4437V0H1920V15.7426C1908.81 15.7426 1911.02 23.0625 1902.6 27.2086C1896.51 30.2033 1890.95 28.6554 1887.05 24.2138C1886.24 23.2887 1884.11 17.4048 1882.24 20.1921C1876.25 29.0777 1865.54 36.7089 1854.54 27.7221C1844.58 19.5792 1843.76 23.5412 1832.21 24.6416C1827.01 25.1375 1822.05 21.271 1817.33 20.1921C1811.15 18.7805 1806.95 21.114 1801.78 23.4437C1793.8 27.0448 1785.45 26.9058 1778.03 30.2891C1771.6 33.223 1765.31 37.6138 1757.34 36.6211C1754.07 36.213 1751.17 34.2174 1748.15 36.1077C1744.68 38.2801 1742.34 40.5098 1737.42 40.5572C1726.89 40.6588 1715.29 34.227 1706.23 40.386C1697.71 46.1726 1698.04 38.8035 1689.26 38.5891C1683.27 38.4429 1678.83 42.4565 1672.95 42.9531C1667.74 43.3937 1661.93 40.6187 1657.3 39.3592C1647.21 36.6157 1634.76 32.4919 1623.8 33.0272C1619.03 33.2604 1614.19 35.0145 1609.36 35.4231C1599.4 36.2642 1589.83 33.15 1580.13 35.7654C1569.51 38.6287 1561.77 29.5659 1550.36 30.2891C1539.13 31.0005 1528.36 31.0192 1517.19 32.0004C1499.84 33.5245 1484.27 23.4437 1467.28 23.4437C1458.3 23.4437 1448.87 25.2778 1440.02 23.7859C1429.43 21.9989 1420.3 18.0755 1409.16 17.8818C1392.59 17.5939 1375.91 20.9655 1359.35 21.6468C1346.6 22.1714 1335.08 22.2701 1322.68 24.8128C1319.45 25.4761 1314.16 27.3919 1311.19 24.9839C1308.23 22.5796 1309.06 22.973 1304.19 23.1014C1290.26 23.4683 1276.31 21.2237 1263.03 18.1385C1250.07 15.1282 1242.21 11.4781 1228.66 14.3735C1217.8 16.6932 1207.28 20.254 1195.82 20.3633C1186.84 20.4488 1178.65 15.9608 1169.88 16.3416C1162.06 16.6812 1155.92 23.9949 1147.88 25.3262C1133.11 27.7709 1126.28 19.5728 1113.62 16.855C1107.64 15.5729 1101.16 19.0406 1095.99 20.7055C1079.68 25.9631 1063.85 23.203 1046.96 24.9839C1033.92 26.3576 1017.23 17.5385 1005.58 21.3901C1000.54 23.0561 996.316 25.8651 990.477 25.155C982.752 24.2157 976.074 20.2291 968.366 19.3364C965.129 18.9615 961.473 23.6519 958.624 24.6416C952.556 26.7498 946.286 26.305 939.907 25.6684C926.271 24.3077 914.184 28.2171 900.721 23.9571C890.607 20.7569 884.679 19.6099 874.013 21.2189C866.236 22.3921 860.165 21.7213 852.778 19.5076C845.133 17.2166 842.929 15.6134 835.374 18.3096C826.054 21.6356 816.208 24.1134 805.929 22.0746C797.577 20.4179 789.066 14.6647 780.207 14.9725C773.395 15.2092 765.785 19.2137 759.519 20.8767C745.149 24.6905 736.128 20.9397 722.522 22.7591C717.644 23.4114 708.635 19.0201 705.665 20.2777C689.418 27.1575 682.878 27.9072 665.275 25.155C660.707 24.4409 655.586 25.8463 651.155 24.6416C641.38 21.9837 638.219 31.6065 629.482 32.685C622.419 33.5568 616.107 36.3409 608.794 36.7922C593.3 37.7485 580.248 32.2887 565.12 33.1984C555.119 33.7998 547.876 27.3213 538.85 30.9736C519.966 38.6152 508.622 30.6987 490.251 29.6045C475.226 28.7097 457.34 19.2117 443.95 25.754C430.737 32.2097 427.239 24.1119 414.834 25.4973C403.589 26.753 403.074 35.8313 391.519 28.2355C387.462 25.5687 382.386 28.9536 377.289 26.8664C369.786 23.794 370.665 27.3798 362.293 27.3798C353.408 27.3798 347.568 20.3633 338.322 20.3633C328.698 20.3633 323.93 20.7594 315.555 23.9571C310.686 25.8157 308.096 19.7082 301.544 21.9035C293.624 24.5568 296.265 18.2751 290.488 17.7107C287.306 17.3997 284.269 20.021 280.856 20.021C276.964 20.021 274.424 17.5169 270.458 17.7107C263.725 18.0396 255.945 21.0011 249.223 22.2457C233.673 25.1247 220.837 23.7575 205.767 22.0746C196.608 21.0517 187.895 21.883 179.278 24.1282C170.052 26.5324 167.1 19.2767 159.248 21.3901C154.715 22.6098 150.982 25.2569 145.894 24.2994C142.548 23.6698 139.32 21.2101 136.042 23.2725L135.709 23.4821C126.704 29.1491 124.05 30.8199 112.399 29.8612C109.326 29.6083 106.522 31.3774 103.424 30.7169C98.8106 29.7334 96.6963 25.5491 92.4777 23.9571C87.9513 22.2489 78.3723 24.6406 73.213 24.9839C68.1531 25.3205 64.7587 28.2977 60.2969 29.7757C54.712 31.6256 53.9231 24.6985 52.1969 22.0746C48.5831 16.5815 36.6576 19.4529 30.0863 20.5344C25.6597 21.2629 17.4191 36.6122 13.6675 29.9468Z" fill="white"/>
</svg>
